<svg width="45" height="37" viewBox="0 0 45 37" fill="none" xmlns="http://www.w3.org/2000/svg">
<path fill-rule="evenodd" clip-rule="evenodd" d="M28.9132 36.2237H15.9458C15.8268 36.2237 15.7078 36.1761 15.6127 36.1047L6.45217 28.2767C6.30941 28.1577 6.26182 27.9674 6.28561 27.8008L8.73634 14.8572L9.85463 1.03317C9.87843 0.81903 10.0212 0.628683 10.2353 0.581096C10.4495 0.53351 10.6874 0.628683 10.8064 0.819031L14.8275 7.60017C16.3027 7.02913 21.561 5.48255 30.0077 7.64775L34.0526 0.819031C34.1716 0.628683 34.3857 0.53351 34.5998 0.581096C34.814 0.628683 34.9805 0.81903 35.0043 1.03317L36.0988 14.8572L38.5495 27.8008C38.5971 27.9674 38.5258 28.1577 38.383 28.2767L29.2225 36.1047C29.1511 36.1761 29.0322 36.2237 28.9132 36.2237ZM16.1361 35.2006H28.7228L37.5026 27.6819L35.0995 15.0237C35.0995 15.0079 35.0995 14.992 35.0995 14.9761L34.1002 2.72251L30.6739 8.48052C30.5549 8.69466 30.3408 8.78984 30.1029 8.71846C25.0349 7.36223 21.1327 7.43361 18.7772 7.71914C16.2075 8.02845 14.8275 8.67088 14.8275 8.69467C14.5895 8.78984 14.304 8.71846 14.1612 8.48052L10.735 2.72251L9.75945 14.9761C9.74359 14.992 9.73566 15.0079 9.73566 15.0237L7.33253 27.6819L16.1361 35.2006Z" fill="white"/>
<path fill-rule="evenodd" clip-rule="evenodd" d="M22.4176 25.9925C22.2986 25.9925 22.1558 25.9449 22.0607 25.8498L19.0865 22.8756C18.9437 22.7328 18.8961 22.5187 18.9913 22.3283C19.0627 22.138 19.253 22.019 19.4672 22.019H25.3917C25.6059 22.019 25.7724 22.138 25.8676 22.3283C25.939 22.5187 25.8914 22.7328 25.7486 22.8756L22.7745 25.8498C22.6793 25.9449 22.5603 25.9925 22.4176 25.9925ZM20.6806 23.0421L22.4176 24.779L24.1545 23.0421H20.6806Z" fill="white"/>
<path d="M20.6331 29.395C20.4189 29.395 20.181 29.3474 19.9193 29.2522C19.6576 29.1809 19.5148 28.8954 19.5862 28.6098C19.6814 28.3481 19.9669 28.2053 20.2286 28.3005C20.7045 28.4433 20.9424 28.3481 21.0614 28.2291C21.7514 27.7295 21.9179 26.0401 21.9179 25.4929C21.9179 25.2074 22.1321 24.9932 22.4176 24.9932C22.7031 24.9932 22.9411 25.2074 22.9411 25.4929C22.9411 25.7546 22.8935 28.1815 21.6562 29.0619C21.4421 29.2285 21.0852 29.395 20.6331 29.395Z" fill="white"/>
<path fill-rule="evenodd" clip-rule="evenodd" d="M24.2021 29.395C23.75 29.395 23.4169 29.2285 23.179 29.0619C21.9417 28.1815 21.9179 25.7546 21.9179 25.4929C21.9179 25.2074 22.1321 24.9932 22.4176 24.9932C22.7031 24.9932 22.941 25.2074 22.941 25.4929C22.941 26.0401 23.0838 27.7533 23.7738 28.2291C23.9166 28.3481 24.1545 28.4433 24.6066 28.3005C24.8683 28.2053 25.1538 28.3481 25.249 28.6098C25.3442 28.8954 25.2014 29.1809 24.9397 29.2522C24.6542 29.3474 24.4162 29.395 24.2021 29.395Z" fill="white"/>
<path d="M28.6991 22.709C28.5087 22.709 28.3184 22.5901 28.247 22.3997C28.128 22.1618 28.2232 21.8525 28.4849 21.7335L40.2151 16.261C40.4768 16.142 40.7623 16.2372 40.8813 16.4989C41.0003 16.7607 40.9051 17.07 40.6434 17.1889L28.9132 22.6614C28.8497 22.6932 28.7784 22.709 28.6991 22.709Z" fill="white"/>
<path d="M40.4292 33.3923C40.3499 33.3923 40.2785 33.3764 40.2151 33.3447L28.4849 27.8722C28.2232 27.7532 28.128 27.4439 28.247 27.206C28.3659 26.9443 28.6515 26.8253 28.9132 26.9443L40.6434 32.4168C40.9051 32.5357 41.0003 32.845 40.8813 33.1068C40.8099 33.2733 40.6196 33.3923 40.4292 33.3923Z" fill="white"/>
<path d="M43.6414 25.2787H28.2232C27.9615 25.2787 27.7235 25.0408 27.7235 24.7553C27.7235 24.4697 27.9615 24.2556 28.2232 24.2556H43.6414C43.9269 24.2556 44.1648 24.4697 44.1648 24.7553C44.1648 25.0408 43.9269 25.2787 43.6414 25.2787Z" fill="white"/>
<path d="M16.0885 22.3521C16.0251 22.3521 15.9537 22.3362 15.8744 22.3045L4.14419 16.832C3.90626 16.7131 3.78729 16.4037 3.90626 16.1658C4.02523 15.9041 4.33454 15.7851 4.57247 15.9041L16.3026 21.3766C16.5644 21.4955 16.6834 21.8049 16.5644 22.0666C16.4692 22.2569 16.2789 22.3521 16.0885 22.3521Z" fill="white"/>
<path d="M4.35834 33.0592C4.16799 33.0592 4.00143 32.9402 3.90626 32.7499C3.78729 32.5119 3.90626 32.2026 4.14419 32.0837L15.8744 26.6112C16.1361 26.4922 16.4454 26.5874 16.5644 26.8491C16.6834 27.1108 16.5644 27.4201 16.3026 27.5391L4.57247 33.0116C4.50902 33.0433 4.43765 33.0592 4.35834 33.0592Z" fill="white"/>
<path d="M16.5644 24.9218H1.14624C0.860718 24.9218 0.646568 24.7077 0.646568 24.4221C0.646568 24.1366 0.860718 23.8987 1.14624 23.8987H16.5644C16.8499 23.8987 17.0641 24.1366 17.0641 24.4221C17.0641 24.7077 16.8499 24.9218 16.5644 24.9218Z" fill="white"/>
</svg>
