<svg xmlns="http://www.w3.org/2000/svg" width="160" height="112.143" viewBox="0 0 160 112.143">
  <g id="undraw_Spreadsheet_re_cn18" transform="translate(0 0)">
    <path id="Caminho_1" data-name="Caminho 1" d="M550.411,265.564H439.579a1.5,1.5,0,0,1-1.5-1.5V195.42H551.909v68.645A1.5,1.5,0,0,1,550.411,265.564Z" transform="translate(-391.909 -192.535)" fill="#e6e6e6"/>
    <path id="Caminho_2" data-name="Caminho 2" d="M559.405,285.1H455.074a1.516,1.516,0,0,1-1.515-1.515V227.055a1.516,1.516,0,0,1,1.515-1.515H559.405a1.517,1.517,0,0,1,1.515,1.515v56.532A1.517,1.517,0,0,1,559.405,285.1Z" transform="translate(-404.154 -216.362)" fill="#fff"/>
    <path id="Caminho_3" data-name="Caminho 3" d="M551.677,186.617H437.849V183.11a1.5,1.5,0,0,1,1.5-1.5H550.179a1.5,1.5,0,0,1,1.5,1.5Z" transform="translate(-391.726 -181.612)" fill="#f50057"/>
    <circle id="Elipse_1" data-name="Elipse 1" cx="0.895" cy="0.895" r="0.895" transform="translate(48.905 1.662)" fill="#fff"/>
    <circle id="Elipse_2" data-name="Elipse 2" cx="0.895" cy="0.895" r="0.895" transform="translate(52.301 1.662)" fill="#fff"/>
    <circle id="Elipse_3" data-name="Elipse 3" cx="0.895" cy="0.895" r="0.895" transform="translate(55.698 1.662)" fill="#fff"/>
    <rect id="Retângulo_2" data-name="Retângulo 2" width="10.753" height="4.76" transform="translate(60.128 19.315)" fill="#e6e6e6"/>
    <rect id="Retângulo_3" data-name="Retângulo 3" width="10.753" height="4.76" transform="translate(81.634 29.186)" fill="#e6e6e6"/>
    <rect id="Retângulo_4" data-name="Retângulo 4" width="10.753" height="4.76" transform="translate(60.128 43.994)" fill="#f50057"/>
    <rect id="Retângulo_5" data-name="Retângulo 5" width="10.753" height="4.76" transform="translate(81.634 53.865)" fill="#f50057"/>
    <rect id="Retângulo_6" data-name="Retângulo 6" width="10.753" height="4.76" transform="translate(135.223 58.801)" fill="#f50057"/>
    <rect id="Retângulo_7" data-name="Retângulo 7" width="10.753" height="4.76" transform="translate(124.47 39.058)" fill="#e6e6e6"/>
    <rect id="Retângulo_8" data-name="Retângulo 8" width="21.506" height="4.76" transform="translate(92.387 39.058)" fill="#f50057"/>
    <rect id="Retângulo_9" data-name="Retângulo 9" width="21.506" height="4.76" transform="translate(92.387 14.203)" fill="#f50057"/>
    <path id="Caminho_4" data-name="Caminho 4" d="M453.414,225.122v59.759h107.53V225.122Zm107.178,4.951H550.227v-4.6h10.365Zm-63.954,34.654v-4.6h21.083v4.6Zm21.083.353v4.6H496.638v-4.6Zm0-19.8v4.6H496.638v-4.6Zm-21.083-.353v-4.6h21.083v4.6Zm0,9.9v-4.6h21.083v4.6Zm21.083.353v4.6H496.638v-4.6Zm-21.436-5.3H485.92v-4.6h10.365Zm0,.353v4.6H485.92v-4.6Zm0,4.951v4.6H485.92v-4.6Zm0,4.95v4.6H485.92v-4.6Zm21.788,0h10.365v4.6H518.073Zm0-.353v-4.6h10.365v4.6Zm0-4.951v-4.6h10.365v4.6Zm0-4.951v-4.6h10.365v4.6Zm0-4.95v-4.6h10.365v4.6Zm0-4.951v-4.6h10.365v4.6Zm-.353,0H496.638v-4.6h21.083Zm-21.436,0H485.92v-4.6h10.365Zm0,.353v4.6H485.92v-4.6Zm-10.718,4.6H475.2v-4.6h10.365Zm0,.353v4.6H475.2v-4.6Zm0,4.95v4.6H475.2v-4.6Zm0,4.951v4.6H475.2v-4.6Zm0,4.95v4.6H475.2v-4.6Zm0,4.951v4.6H475.2v-4.6Zm.353,0h10.365v4.6H485.92Zm10.365,4.951v4.6H485.92v-4.6Zm.353,0h21.083v4.6H496.638Zm21.435,0h10.365v4.6H518.073Zm0-.353v-4.6h10.365v4.6Zm10.718-4.6h10.365v4.6H528.791Zm0-.353v-4.6h10.365v4.6Zm0-4.951v-4.6h10.365v4.6Zm0-4.951v-4.6h10.365v4.6Zm0-4.951v-4.6h10.365v4.6Zm0-4.95v-4.6h10.365v4.6Zm0-4.951v-4.6h10.365v4.6Zm0-4.951v-4.6h10.365v4.6Zm-.353,0H518.073v-4.6h10.365Zm-10.718,0H496.638v-4.6h21.083Zm-21.436,0H485.92v-4.6h10.365Zm-10.718,0H475.2v-4.6h10.365Zm0,.353v4.6H475.2v-4.6Zm-10.718,4.6H464.485v-4.6H474.85Zm0,.353v4.6H464.485v-4.6Zm0,4.951v4.6H464.485v-4.6Zm0,4.95v4.6H464.485v-4.6Zm0,4.951v4.6H464.485v-4.6Zm0,4.95v4.6H464.485v-4.6Zm0,4.951v4.6H464.485v-4.6Zm0,4.951v4.6H464.485v-4.6Zm.353,0h10.365v4.6H475.2Zm10.365,4.95v4.6H475.2v-4.6Zm.353,0h10.365v4.6H485.92Zm10.718,0h21.083v4.6H496.638Zm21.435,0h10.365v4.6H518.073Zm10.718,0h10.365v4.6H528.791Zm0-.353v-4.6h10.365v4.6Zm10.718-4.6h10.365v4.6H539.509Zm0-.353v-4.6h10.365v4.6Zm0-4.951v-4.6h10.365v4.6Zm0-4.951v-4.6h10.365v4.6Zm0-4.951v-4.6h10.365v4.6Zm0-4.951v-4.6h10.365v4.6Zm0-4.95v-4.6h10.365v4.6Zm0-4.951v-4.6h10.365v4.6Zm0-4.951v-4.6h10.365v4.6Zm0-4.95v-4.6h10.365v4.6Zm-.353,0H528.791v-4.6h10.365Zm-10.718,0H518.073v-4.6h10.365Zm-10.718,0H496.638v-4.6h21.083Zm-21.436,0H485.92v-4.6h10.365Zm-10.718,0H475.2v-4.6h10.365Zm-10.718,0H464.485v-4.6H474.85Zm0,.353v4.6H464.485v-4.6Zm-10.718,4.6H453.767v-4.6h10.365Zm0,.353v4.6H453.767v-4.6Zm0,4.951v4.6H453.767v-4.6Zm0,4.951v4.6H453.767v-4.6Zm0,4.95v4.6H453.767v-4.6Zm0,4.951v4.6H453.767v-4.6Zm0,4.951v4.6H453.767v-4.6Zm0,4.951v4.6H453.767v-4.6Zm0,4.951v4.6H453.767v-4.6Zm0,4.95v4.6H453.767v-4.6Zm.353,0H474.85v4.6H464.485Zm10.365,4.951v4.6H464.485v-4.6Zm.353,0h10.365v4.6H475.2Zm10.718,0h10.365v4.6H485.92Zm10.718,0h21.083v4.6H496.638Zm21.435,0h10.365v4.6H518.073Zm10.718,0h10.365v4.6H528.791Zm10.718,0h10.365v4.6H539.509Zm0-.353v-4.6h10.365v4.6Zm10.718-4.6h10.365v4.6H550.227Zm0-.353v-4.6h10.365v4.6Zm0-4.95v-4.6h10.365v4.6Zm0-4.951v-4.6h10.365v4.6Zm0-4.951v-4.6h10.365v4.6Zm0-4.951v-4.6h10.365v4.6Zm0-4.951v-4.6h10.365v4.6Zm0-4.95v-4.6h10.365v4.6Zm0-4.951v-4.6h10.365v4.6Zm0-4.951v-4.6h10.365v4.6Zm-86.095-9.548v4.6H453.767v-4.6Zm-10.365,54.456h10.365v4.6H453.767Zm96.46,4.6v-4.6h10.365v4.6Z" transform="translate(-404.039 -216.032)" fill="#e6e6e6"/>
    <path id="Caminho_5" data-name="Caminho 5" d="M278.5,378.812s-5.44-1.254-8.432,1.045,3.808,7.521,3.808,7.521Z" transform="translate(-258.395 -337.343)" fill="#2f2e41"/>
    <path id="Caminho_6" data-name="Caminho 6" d="M339.715,484.986a2.1,2.1,0,0,1,1.575-2.81l1.1-7.384,2.889,2.589L343.792,484a2.112,2.112,0,0,1-4.077.99Z" transform="translate(-313.986 -413.54)" fill="#ffb8b8"/>
    <path id="Caminho_7" data-name="Caminho 7" d="M66.171,487.19l2.556-.17.562-9.938-3.772.25Z" transform="translate(-51.829 -377.409)" fill="#ffb8b8"/>
    <path id="Caminho_8" data-name="Caminho 8" d="M0,0H8.05V3.11H3.11A3.11,3.11,0,0,1,0,0H0Z" transform="translate(21.89 111.927) rotate(180)" fill="#2f2e41"/>
    <path id="Caminho_9" data-name="Caminho 9" d="M89.789,473.436l2.4.887,4.565-8.846-3.546-1.309Z" transform="translate(-71.03 -367.193)" fill="#ffb8b8"/>
    <path id="Caminho_10" data-name="Caminho 10" d="M0,0H8.05V3.11H3.11A3.11,3.11,0,0,1,0,0H0Z" transform="translate(24.972 111.071) rotate(-159.739)" fill="#2f2e41"/>
    <path id="Caminho_11" data-name="Caminho 11" d="M275.478,493.067s2.588,1.394,1.792,6.968l-.8,21.1-4.4,9.62-3.783-1,2.409-7.829L267.515,508.2,267.1,533.15l-3.584.6-5.157-41.476,6.57-2.987Z" transform="translate(-249.733 -425.005)" fill="#2f2e41"/>
    <circle id="Elipse_4" data-name="Elipse 4" cx="5.131" cy="5.131" r="5.131" transform="translate(11.363 28.838)" fill="#ffb8b8"/>
    <path id="Caminho_12" data-name="Caminho 12" d="M257.225,375.406l-2.588,4.181-3.783-3.783-7.072,4.95a1.338,1.338,0,0,0-.475,1.6,44.983,44.983,0,0,1,3.067,19.833,23.239,23.239,0,0,1,10.95.2c5.575,1.593,6.968,1,6.968,1s-1.394-10.154-.6-12.344c.661-1.817,2.006-7.88,2.446-9.895a.908.908,0,0,0-.444-.986Z" transform="translate(-237.751 -334.918)" fill="#f50057"/>
    <path id="Caminho_13" data-name="Caminho 13" d="M340.045,398.212h0a.91.91,0,0,1,1.005.658l3.37,12.17-.8,7.366-3.783-.6.4-5.176-2.787-6.57,1.84-7.176A.91.91,0,0,1,340.045,398.212Z" transform="translate(-312.305 -352.952)" fill="#f50057"/>
    <path id="Caminho_14" data-name="Caminho 14" d="M266.166,302.909a3.657,3.657,0,0,1,3.372-1.794,7.166,7.166,0,0,1,2.038.57l3.355,1.308a2.719,2.719,0,0,1,2.02,4.133l-1.255,3.914a11.9,11.9,0,0,0-.711-2.586,4,4,0,0,0-1.738-1.982,5.667,5.667,0,0,0-2.877-.391,5.749,5.749,0,0,0-3.876,1.22,4.027,4.027,0,0,0-1.022,2,12.017,12.017,0,0,0-.214,2.258,18.726,18.726,0,0,1-1.43-3.065,7.583,7.583,0,0,1-.531-2.481,3.49,3.49,0,0,1,.8-2.36,2.289,2.289,0,0,1,2.3-.725" transform="translate(-253.64 -276.143)" fill="#2f2e41"/>
    <path id="Caminho_15" data-name="Caminho 15" d="M242.313,498.986a2.1,2.1,0,0,0-1.575-2.81l-1.1-7.384-2.889,2.59L238.236,498a2.112,2.112,0,0,0,4.077.99Z" transform="translate(-232.64 -424.615)" fill="#ffb8b8"/>
    <path id="Caminho_16" data-name="Caminho 16" d="M237.743,400.6h0a1.34,1.34,0,0,0-1.118,1.255l-1.141,22.814h4.181l1.394-12.145L239.285,401.7a1.34,1.34,0,0,0-1.542-1.1Z" transform="translate(-231.639 -354.834)" fill="#f50057"/>
    <path id="Caminho_17" data-name="Caminho 17" d="M35.88,535.111H0v-.44H35.959Z" transform="translate(0 -422.967)" fill="#ccc"/>
  </g>
</svg>