<svg xmlns="http://www.w3.org/2000/svg" width="130" height="104.737" viewBox="0 0 130 104.737">
  <g id="undraw_business_shop_qw5t" transform="translate(0 0)">
    <ellipse id="Elipse_11" data-name="Elipse 11" cx="64.228" cy="5.018" rx="64.228" ry="5.018" transform="translate(1.544 94.702)" fill="#3f3d56"/>
    <path id="Caminho_45" data-name="Caminho 45" d="M759.587,582.2l.6,4.415-4.214.4.6-5.418Z" transform="translate(-639.257 -491.805)" fill="#a0616a"/>
    <path id="Caminho_46" data-name="Caminho 46" d="M806.745,303.812s.4,5.418.4,5.619-2.809,14.046-2.809,14.046-4.013,7.625,0,7.424,2.809-7.224,2.809-7.224l4.214-11.638-1.806-8.227Z" transform="translate(-706.28 -274.014)" fill="#a0616a"/>
    <path id="Caminho_47" data-name="Caminho 47" d="M690.294,582.2l-.6,4.415,4.214.4-.6-5.418Z" transform="translate(-583.208 -491.805)" fill="#a0616a"/>
    <path id="Caminho_48" data-name="Caminho 48" d="M835.738,423.086l-1,1.4s-.6,6.02,0,8.026,1.806,11.237,1.806,11.839.2,1,0,1.2-.8.2-.4.6.4,1.605.4,1.605v1l2.609,14.849s-1.605,1.806-.4,1.806,5.619,0,5.418-2.007l-.4-.2s-.6-13.244-.4-13.846a5.121,5.121,0,0,0,0-1.806s-.4-.6,0-.8.4-1.806.4-1.806l1.806-12.24s1.605,8.227,2.609,9.03.8,2.809.8,2.809l.8,17.658s-.8,2.007,0,2.408,4.214,1.806,4.415-.2,1.2-19.464,1.2-20.267-.2-1.2,0-1.806-.2-.6,0-.6-.4-.6-.4-1v-9.832a14.822,14.822,0,0,1,.4-2.408c.2-.4-.2-.8,0-1.4a7.861,7.861,0,0,0-.4-2.609l-9.03-2.408Z" transform="translate(-733.266 -374.024)" fill="#2f2e41"/>
    <path id="Caminho_49" data-name="Caminho 49" d="M856.96,714.211s1-1-.4-1a6.53,6.53,0,0,0-2.609.6l-1,3.612s-4.114,3.311.5,2.91,3.913-.1,3.913-.1,1.4-.4,1.605-.8a57.2,57.2,0,0,0-.4-6.221S857.964,714.813,856.96,714.211Z" transform="translate(-747.466 -620.201)" fill="#2f2e41"/>
    <path id="Caminho_50" data-name="Caminho 50" d="M929.662,714.211s-1-1,.4-1a6.531,6.531,0,0,1,2.609.6l1,3.612s4.114,3.311-.5,2.91-4.515-.1-4.515-.1-1.4-.4-1.605-.8,1-6.221,1-6.221S928.658,714.813,929.662,714.211Z" transform="translate(-811.539 -620.201)" fill="#2f2e41"/>
    <circle id="Elipse_12" data-name="Elipse 12" cx="5.217" cy="5.217" r="5.217" transform="translate(99.863 3.512)" fill="#a0616a"/>
    <path id="Caminho_51" data-name="Caminho 51" d="M847.9,181.051s.8,4.013.8,4.615,3.411,2.408,3.411,2.408l3.813-4.816s-2.408-3.411-2.408-4.214Z" transform="translate(-744.623 -168.509)" fill="#a0616a"/>
    <path id="Caminho_52" data-name="Caminho 52" d="M824.531,202.824a5.06,5.06,0,0,1-2.279-1.236s-5.547,5.45-5.547,6.453l4.414,7.826s0,2.809.4,3.01,0,0,0,.8-1.2,6.02-.8,6.822.8.2.4,1.4-1.4,7.625-1.4,7.625,3.612-1.2,8.829.8,11.438-.8,11.438-.8-1.605-3.612-1.2-4.816-1-3.411-1-3.411l-1-18.461s1.4-8.227.4-8.628l-2.007-.8-6.426-.79S827.139,202.623,824.531,202.824Z" transform="translate(-718.247 -185.065)" fill="#d0cde1"/>
    <path id="Caminho_53" data-name="Caminho 53" d="M816.27,250.526l-2.007,1.4s-1,3.01,0,4.415a10.289,10.289,0,0,1,1.4,3.411l4.013-.4Z" transform="translate(-715.805 -228.955)" fill="#d0cde1"/>
    <path id="Caminho_54" data-name="Caminho 54" d="M824.187,114.027l-.905-.362a6.174,6.174,0,0,1,4.525-1.9l-.74-.815a3.148,3.148,0,0,1,3.455,1.177,16.06,16.06,0,0,1,2.49,3.5h.969l-.4.891,1.416.891-1.453-.16a4.929,4.929,0,0,1-.137,2.307l.039.7a21.645,21.645,0,0,1-1.684-2.968v.906s-.905-.815-.905-1.359l-.494.634-.247-1-3.044,1,.494-.815-1.892.272.74-1s-2.139,1.177-2.221,2.174a5.344,5.344,0,0,1-1.152,2.264l-.494-.906S821.8,115.386,824.187,114.027Z" transform="translate(-723.091 -110.812)" fill="#2f2e41"/>
    <rect id="Retângulo_27" data-name="Retângulo 27" width="79.739" height="56.014" transform="translate(22.568 43.668)" fill="#f2f2f2"/>
    <rect id="Retângulo_28" data-name="Retângulo 28" width="20.022" height="34.951" transform="translate(29.28 65.04)" fill="#3f3d56"/>
    <rect id="Retângulo_29" data-name="Retângulo 29" width="5.393" height="5.028" transform="translate(32.984 67.137)" fill="#f2f2f2"/>
    <rect id="Retângulo_30" data-name="Retângulo 30" width="5.393" height="5.028" transform="translate(40.205 67.137)" fill="#f2f2f2"/>
    <rect id="Retângulo_31" data-name="Retângulo 31" width="5.393" height="5.21" transform="translate(32.984 73.992)" fill="#f2f2f2"/>
    <rect id="Retângulo_32" data-name="Retângulo 32" width="5.393" height="5.21" transform="translate(40.205 73.992)" fill="#f2f2f2"/>
    <circle id="Elipse_13" data-name="Elipse 13" cx="1.273" cy="1.273" r="1.273" transform="translate(45.482 83.595)" fill="#f50057"/>
    <rect id="Retângulo_33" data-name="Retângulo 33" width="39.58" height="33.215" transform="translate(56.014 61.722)" fill="#3f3d56"/>
    <path id="Caminho_55" data-name="Caminho 55" d="M188.6,203.928H92.2l6.428-13.439,1.438-3.009,1.882-3.935,1.438-3.009,1.668-3.486h75.955l.985,3.486.851,3.009,1.112,3.935.851,3.009Z" transform="translate(-77.964 -149.715)" fill="#3f3d56"/>
    <rect id="Retângulo_34" data-name="Retângulo 34" width="1.389" height="8.564" transform="translate(57.403 75.494)" fill="#f50057"/>
    <rect id="Retângulo_35" data-name="Retângulo 35" width="1.389" height="1.042" transform="translate(57.403 76.767)" fill="#f2f2f2"/>
    <rect id="Retângulo_36" data-name="Retângulo 36" width="1.389" height="1.042" transform="translate(57.403 81.744)" fill="#f2f2f2"/>
    <rect id="Retângulo_37" data-name="Retângulo 37" width="3.356" height="8.564" transform="translate(59.486 75.494)" fill="#f50057"/>
    <rect id="Retângulo_38" data-name="Retângulo 38" width="3.356" height="1.042" transform="translate(59.486 76.767)" fill="#f2f2f2"/>
    <rect id="Retângulo_39" data-name="Retângulo 39" width="3.356" height="1.042" transform="translate(59.486 81.744)" fill="#f2f2f2"/>
    <rect id="Retângulo_40" data-name="Retângulo 40" width="1.389" height="8.564" transform="translate(63.652 75.494)" fill="#f50057"/>
    <rect id="Retângulo_41" data-name="Retângulo 41" width="1.389" height="1.042" transform="translate(63.652 76.767)" fill="#f2f2f2"/>
    <rect id="Retângulo_42" data-name="Retângulo 42" width="1.389" height="1.042" transform="translate(63.652 81.744)" fill="#f2f2f2"/>
    <rect id="Retângulo_43" data-name="Retângulo 43" width="1.389" height="8.564" transform="translate(65.736 75.494)" fill="#f50057"/>
    <rect id="Retângulo_44" data-name="Retângulo 44" width="1.389" height="1.042" transform="translate(65.736 76.767)" fill="#f2f2f2"/>
    <rect id="Retângulo_45" data-name="Retângulo 45" width="1.389" height="1.042" transform="translate(65.736 81.744)" fill="#f2f2f2"/>
    <rect id="Retângulo_46" data-name="Retângulo 46" width="1.389" height="8.564" transform="translate(67.164 76.014) rotate(-20.654)" fill="#f50057"/>
    <rect id="Retângulo_47" data-name="Retângulo 47" width="1.389" height="1.042" transform="translate(67.613 77.205) rotate(-20.654)" fill="#f2f2f2"/>
    <rect id="Retângulo_48" data-name="Retângulo 48" width="1.389" height="1.042" transform="translate(69.368 81.862) rotate(-20.654)" fill="#f2f2f2"/>
    <rect id="Retângulo_49" data-name="Retângulo 49" width="3.356" height="8.564" transform="translate(90.965 75.494)" fill="#f50057"/>
    <rect id="Retângulo_50" data-name="Retângulo 50" width="3.356" height="1.042" transform="translate(90.965 76.767)" fill="#f2f2f2"/>
    <rect id="Retângulo_51" data-name="Retângulo 51" width="3.356" height="1.042" transform="translate(90.965 81.744)" fill="#f2f2f2"/>
    <rect id="Retângulo_52" data-name="Retângulo 52" width="1.389" height="8.564" transform="translate(88.766 75.494)" fill="#f50057"/>
    <rect id="Retângulo_53" data-name="Retângulo 53" width="1.389" height="1.042" transform="translate(88.766 76.767)" fill="#f2f2f2"/>
    <rect id="Retângulo_54" data-name="Retângulo 54" width="1.389" height="1.042" transform="translate(88.766 81.744)" fill="#f2f2f2"/>
    <rect id="Retângulo_55" data-name="Retângulo 55" width="1.389" height="8.564" transform="translate(86.683 75.494)" fill="#f50057"/>
    <rect id="Retângulo_56" data-name="Retângulo 56" width="1.389" height="1.042" transform="translate(86.683 76.767)" fill="#f2f2f2"/>
    <rect id="Retângulo_57" data-name="Retângulo 57" width="1.389" height="1.042" transform="translate(86.683 81.744)" fill="#f2f2f2"/>
    <rect id="Retângulo_58" data-name="Retângulo 58" width="8.564" height="1.389" transform="translate(82.325 83.538) rotate(-69.346)" fill="#f50057"/>
    <rect id="Retângulo_59" data-name="Retângulo 59" width="1.042" height="1.389" transform="translate(84.529 77.69) rotate(-69.346)" fill="#f2f2f2"/>
    <rect id="Retângulo_60" data-name="Retângulo 60" width="1.042" height="1.389" transform="translate(82.774 82.347) rotate(-69.346)" fill="#f2f2f2"/>
    <rect id="Retângulo_61" data-name="Retângulo 61" width="39.58" height="0.81" transform="translate(56.014 84.058)" fill="#f2f2f2"/>
    <rect id="Retângulo_62" data-name="Retângulo 62" width="7.291" height="8.564" transform="translate(73.258 75.494)" fill="#f50057"/>
    <rect id="Retângulo_63" data-name="Retângulo 63" width="3.703" height="1.62" transform="translate(75.052 77.346)" fill="#f2f2f2"/>
    <rect id="Retângulo_64" data-name="Retângulo 64" width="0.694" height="7.407" transform="translate(75.457 61.722)" fill="#f2f2f2"/>
    <circle id="Elipse_14" data-name="Elipse 14" cx="1.157" cy="1.157" r="1.157" transform="translate(74.647 67.971)" fill="#f2f2f2"/>
    <path id="Caminho_56" data-name="Caminho 56" d="M236.233,202.637h-80.9l1.438-3.009h78.607Z" transform="translate(-131.354 -168.806)" fill="#f50057"/>
    <path id="Caminho_57" data-name="Caminho 57" d="M220.01,247.612H133.831l1.438-3.009h83.89Z" transform="translate(-113.168 -206.837)" fill="#f50057"/>
    <path id="Caminho_58" data-name="Caminho 58" d="M817.864,262.223a15.348,15.348,0,0,0-.919,5.944,3.133,3.133,0,0,0,.518,1.48h0l-14.236,6.759s-6.432.666-4.827,3.475,7.424-1.4,7.424-1.4,15.25-2.207,16.454-4.415,2.007-11.438,2.007-11.438Z" transform="translate(-702.55 -238.846)" fill="#a0616a"/>
    <path id="Caminho_59" data-name="Caminho 59" d="M922.083,208.937h3.01s2.207.4,2.809,4.415,1.2,5.017.6,5.017-7.826-.2-7.826-.4S922.083,208.937,922.083,208.937Z" transform="translate(-806.167 -193.787)" fill="#d0cde1"/>
    <circle id="Elipse_15" data-name="Elipse 15" cx="15.439" cy="15.439" r="15.439" transform="translate(0 44.215)" fill="#f50057"/>
    <circle id="Elipse_16" data-name="Elipse 16" cx="13.278" cy="13.278" r="13.278" transform="translate(2.162 46.377)" opacity="0.1"/>
    <path id="Caminho_60" data-name="Caminho 60" d="M260.765,461.9v-1.933a4.488,4.488,0,0,1-2.577-.842l.4-1.282a4.119,4.119,0,0,0,2.425.823,1.858,1.858,0,0,0,2-1.875c0-1.052-.657-1.7-1.9-2.277-1.718-.765-2.779-1.646-2.779-3.31a3.008,3.008,0,0,1,2.543-3.081v-1.933h1.044v1.856a4.1,4.1,0,0,1,2.19.67l-.421,1.263a3.721,3.721,0,0,0-2.122-.651,1.617,1.617,0,0,0-1.785,1.646c0,.995.623,1.492,2.089,2.181,1.735.8,2.611,1.8,2.611,3.5a3.2,3.2,0,0,1-2.661,3.253v1.99Z" transform="translate(-245.962 -394.408)" fill="#f2f2f2"/>
  </g>
</svg>