<svg width="16" height="16" viewBox="0 0 16 16" fill="none" xmlns="http://www.w3.org/2000/svg">
<path fill-rule="evenodd" clip-rule="evenodd" d="M13.2721 -0.00830078C12.5485 -0.00830078 11.8546 0.278998 11.3427 0.790424L11.3419 0.791214L10.3092 1.8203C10.2626 1.85307 10.2182 1.89029 10.1765 1.93194C10.1357 1.97273 10.0992 2.01615 10.0669 2.06167L4.41235 7.6961C4.22404 7.88374 4.11819 8.13863 4.11819 8.40447V10.8754C4.11819 11.4276 4.5659 11.8754 5.11819 11.8754H7.58908C7.85492 11.8754 8.10981 11.7695 8.29745 11.5812L13.9319 5.92662C13.9774 5.89435 14.0208 5.85783 14.0616 5.81705C14.1033 5.77539 14.1405 5.73097 14.1733 5.68438L15.2023 4.65161L15.2032 4.65078C15.7146 4.13894 16.0019 3.44499 16.0019 2.72141C16.0019 1.99745 15.7143 1.30314 15.2023 0.791214C14.6904 0.279293 13.9961 -0.00830078 13.2721 -0.00830078ZM6.11819 8.81973L10.8926 4.0623L11.9313 5.10091L7.17382 9.87536H6.11819V8.81973ZM12.3094 2.65061L13.3429 3.68417L13.7869 3.23866L13.7881 3.2374C13.925 3.10055 14.0019 2.91495 14.0019 2.72141C14.0019 2.52788 13.925 2.34228 13.7881 2.20543C13.6513 2.06858 13.4657 1.9917 13.2721 1.9917C13.0786 1.9917 12.893 2.06858 12.7562 2.20543L12.7549 2.20669L12.3094 2.65061ZM2.64732 3.2863C1.94523 3.2863 1.27188 3.56521 0.775426 4.06167C0.278968 4.55812 6.10352e-05 5.23146 6.10352e-05 5.93356V13.3462C6.10352e-05 14.0483 0.278968 14.7217 0.775426 15.2181C1.27188 15.7146 1.94523 15.9935 2.64732 15.9935H10.06C10.7621 15.9935 11.4354 15.7146 11.9319 15.2181C12.4284 14.7217 12.7073 14.0483 12.7073 13.3462V12.5226C12.7073 11.9703 12.2596 11.5226 11.7073 11.5226C11.155 11.5226 10.7073 11.9703 10.7073 12.5226V13.3462C10.7073 13.5179 10.6391 13.6825 10.5177 13.8039C10.3963 13.9253 10.2317 13.9935 10.06 13.9935H2.64732C2.47566 13.9935 2.31103 13.9253 2.18964 13.8039C2.06825 13.6825 2.00006 13.5179 2.00006 13.3462V5.93356C2.00006 5.7619 2.06825 5.59726 2.18964 5.47588C2.31103 5.35449 2.47566 5.2863 2.64732 5.2863H3.47096C4.02324 5.2863 4.47096 4.83858 4.47096 4.2863C4.47096 3.73401 4.02324 3.2863 3.47096 3.2863H2.64732Z" fill="url(#paint0_linear_125_3670)"/>
<defs>
<linearGradient id="paint0_linear_125_3670" x1="6.09933e-05" y1="8.12377" x2="16.0019" y2="8.12377" gradientUnits="userSpaceOnUse">
<stop stop-color="#00CAFC"/>
<stop offset="1" stop-color="#0056E2"/>
</linearGradient>
</defs>
</svg>
