<svg width="17" height="17" viewBox="0 0 17 17" fill="none" xmlns="http://www.w3.org/2000/svg">
<path fill-rule="evenodd" clip-rule="evenodd" d="M13.5851 0C12.8498 0 12.1446 0.291948 11.6245 0.81165L11.6237 0.812438L10.563 1.86937C10.5158 1.90245 10.4708 1.94008 10.4286 1.98227C10.3873 2.02358 10.3503 2.0676 10.3177 2.11377L4.51734 7.89349C4.32903 8.08113 4.22319 8.33603 4.22319 8.60186V11.1358C4.22319 11.6881 4.6709 12.1358 5.22319 12.1358H7.75711C8.02295 12.1358 8.27784 12.0299 8.46548 11.8416L14.2452 6.04123C14.2914 6.00866 14.3354 5.97171 14.3767 5.9304C14.4189 5.88822 14.4565 5.8432 14.4896 5.79596L15.5465 4.73524L15.5473 4.7345C16.067 4.21437 16.359 3.50916 16.359 2.77384C16.359 2.03817 16.0667 1.33263 15.5465 0.812438C15.0263 0.292242 14.3208 0 13.5851 0ZM6.22319 9.01712L11.145 4.11288L12.2461 5.214L7.34185 10.1358H6.22319V9.01712ZM12.5617 2.7012L13.6578 3.79726L14.1311 3.32229L14.1323 3.32102C14.2774 3.1759 14.359 2.97907 14.359 2.77384C14.359 2.5686 14.2774 2.37177 14.1323 2.22665C13.9872 2.08153 13.7904 2 13.5851 2C13.3799 2 13.1831 2.08153 13.038 2.22665L13.0367 2.22791L12.5617 2.7012ZM2.68928 3.3786C1.97604 3.3786 1.29201 3.66193 0.787673 4.16627C0.283334 4.67061 0 5.35464 0 6.06788V13.6697C0 14.3829 0.283334 15.0669 0.787673 15.5713C1.29201 16.0756 1.97604 16.3589 2.68928 16.3589H10.2911C11.0043 16.3589 11.6883 16.0756 12.1927 15.5713C12.697 15.0669 12.9803 14.3829 12.9803 13.6697V12.825C12.9803 12.2727 12.5326 11.825 11.9803 11.825C11.4281 11.825 10.9803 12.2727 10.9803 12.825V13.6697C10.9803 13.8525 10.9077 14.0278 10.7785 14.1571C10.6492 14.2863 10.4739 14.3589 10.2911 14.3589H2.68928C2.50647 14.3589 2.33115 14.2863 2.20189 14.1571C2.07262 14.0278 2 13.8525 2 13.6697V6.06788C2 5.88507 2.07262 5.70975 2.20189 5.58049C2.33115 5.45122 2.50647 5.3786 2.68928 5.3786H3.53392C4.08621 5.3786 4.53392 4.93088 4.53392 4.3786C4.53392 3.82631 4.08621 3.3786 3.53392 3.3786H2.68928Z" fill="white"/>
</svg>
