<svg width="182" height="48" viewBox="0 0 182 48" fill="none" xmlns="http://www.w3.org/2000/svg">
<path d="M82.53 32.18C83.89 32.18 84.88 31.95 85.5 31.49C86.12 31.03 86.43 30.38 86.43 29.54C86.43 29.04 86.32 28.61 86.1 28.25C85.9 27.89 85.6 27.57 85.2 27.29C84.82 26.99 84.35 26.72 83.79 26.48C83.23 26.22 82.59 25.97 81.87 25.73C81.15 25.47 80.45 25.19 79.77 24.89C79.11 24.57 78.52 24.18 78 23.72C77.5 23.26 77.09 22.71 76.77 22.07C76.47 21.43 76.32 20.66 76.32 19.76C76.32 17.88 76.97 16.41 78.27 15.35C79.57 14.27 81.34 13.73 83.58 13.73C84.88 13.73 86.03 13.88 87.03 14.18C88.05 14.46 88.85 14.77 89.43 15.11L88.26 18.17C87.58 17.79 86.83 17.5 86.01 17.3C85.21 17.1 84.38 17 83.52 17C82.5 17 81.7 17.21 81.12 17.63C80.56 18.05 80.28 18.64 80.28 19.4C80.28 19.86 80.37 20.26 80.55 20.6C80.75 20.92 81.02 21.21 81.36 21.47C81.72 21.73 82.13 21.97 82.59 22.19C83.07 22.41 83.59 22.62 84.15 22.82C85.13 23.18 86 23.55 86.76 23.93C87.54 24.29 88.19 24.73 88.71 25.25C89.25 25.75 89.66 26.35 89.94 27.05C90.22 27.73 90.36 28.56 90.36 29.54C90.36 31.42 89.69 32.88 88.35 33.92C87.03 34.94 85.09 35.45 82.53 35.45C81.67 35.45 80.88 35.39 80.16 35.27C79.46 35.17 78.83 35.04 78.27 34.88C77.73 34.72 77.26 34.56 76.86 34.4C76.46 34.22 76.14 34.06 75.9 33.92L77.01 30.83C77.55 31.13 78.28 31.43 79.2 31.73C80.12 32.03 81.23 32.18 82.53 32.18ZM107.701 27.14C107.701 28.38 107.521 29.51 107.161 30.53C106.801 31.55 106.291 32.42 105.631 33.14C104.971 33.86 104.171 34.42 103.231 34.82C102.311 35.22 101.291 35.42 100.171 35.42C99.0512 35.42 98.0312 35.22 97.1112 34.82C96.1912 34.42 95.4012 33.86 94.7412 33.14C94.0812 32.42 93.5612 31.55 93.1812 30.53C92.8212 29.51 92.6412 28.38 92.6412 27.14C92.6412 25.9 92.8212 24.78 93.1812 23.78C93.5612 22.76 94.0812 21.89 94.7412 21.17C95.4212 20.45 96.2212 19.9 97.1412 19.52C98.0612 19.12 99.0712 18.92 100.171 18.92C101.271 18.92 102.281 19.12 103.201 19.52C104.141 19.9 104.941 20.45 105.601 21.17C106.261 21.89 106.771 22.76 107.131 23.78C107.511 24.78 107.701 25.9 107.701 27.14ZM103.981 27.14C103.981 25.58 103.641 24.35 102.961 23.45C102.301 22.53 101.371 22.07 100.171 22.07C98.9712 22.07 98.0312 22.53 97.3512 23.45C96.6912 24.35 96.3612 25.58 96.3612 27.14C96.3612 28.72 96.6912 29.97 97.3512 30.89C98.0312 31.81 98.9712 32.27 100.171 32.27C101.371 32.27 102.301 31.81 102.961 30.89C103.641 29.97 103.981 28.72 103.981 27.14ZM117.831 11.72C118.671 11.72 119.411 11.8 120.051 11.96C120.691 12.1 121.171 12.23 121.491 12.35L120.801 15.35C120.461 15.19 120.061 15.06 119.601 14.96C119.161 14.86 118.681 14.81 118.161 14.81C117.581 14.81 117.091 14.9 116.691 15.08C116.291 15.24 115.971 15.47 115.731 15.77C115.491 16.07 115.321 16.44 115.221 16.88C115.121 17.3 115.071 17.76 115.071 18.26V19.31H120.771V22.34H115.071V35H111.441V18.2C111.441 16.18 111.971 14.6 113.031 13.46C114.091 12.3 115.691 11.72 117.831 11.72ZM123.273 15.17L126.903 14.57V19.31H132.483V22.34H126.903V28.73C126.903 29.99 127.103 30.89 127.503 31.43C127.903 31.97 128.583 32.24 129.543 32.24C130.203 32.24 130.783 32.17 131.283 32.03C131.803 31.89 132.213 31.76 132.513 31.64L133.113 34.52C132.693 34.7 132.143 34.88 131.463 35.06C130.783 35.26 129.983 35.36 129.063 35.36C127.943 35.36 127.003 35.21 126.243 34.91C125.503 34.61 124.913 34.18 124.473 33.62C124.033 33.04 123.723 32.35 123.543 31.55C123.363 30.73 123.273 29.8 123.273 28.76V15.17ZM142.052 14C145.072 14 147.382 14.55 148.982 15.65C150.602 16.75 151.412 18.47 151.412 20.81C151.412 22.03 151.192 23.08 150.752 23.96C150.332 24.82 149.712 25.53 148.892 26.09C148.072 26.63 147.072 27.03 145.892 27.29C144.712 27.55 143.362 27.68 141.842 27.68H139.952V35H136.172V14.51C137.052 14.31 138.022 14.18 139.082 14.12C140.162 14.04 141.152 14 142.052 14ZM142.322 17.27C141.362 17.27 140.572 17.3 139.952 17.36V24.44H141.782C143.602 24.44 145.002 24.19 145.982 23.69C146.962 23.17 147.452 22.2 147.452 20.78C147.452 20.1 147.322 19.53 147.062 19.07C146.802 18.61 146.442 18.25 145.982 17.99C145.522 17.73 144.972 17.55 144.332 17.45C143.712 17.33 143.042 17.27 142.322 17.27ZM152.963 27.23C152.963 25.85 153.163 24.64 153.563 23.6C153.983 22.56 154.533 21.7 155.213 21.02C155.893 20.32 156.673 19.8 157.553 19.46C158.433 19.1 159.333 18.92 160.253 18.92C162.413 18.92 164.093 19.59 165.293 20.93C166.513 22.27 167.123 24.27 167.123 26.93C167.123 27.13 167.113 27.36 167.093 27.62C167.093 27.86 167.083 28.08 167.063 28.28H156.713C156.813 29.54 157.253 30.52 158.033 31.22C158.833 31.9 159.983 32.24 161.483 32.24C162.363 32.24 163.163 32.16 163.883 32C164.623 31.84 165.203 31.67 165.623 31.49L166.103 34.46C165.903 34.56 165.623 34.67 165.263 34.79C164.923 34.89 164.523 34.98 164.063 35.06C163.623 35.16 163.143 35.24 162.623 35.3C162.103 35.36 161.573 35.39 161.033 35.39C159.653 35.39 158.453 35.19 157.433 34.79C156.413 34.37 155.573 33.8 154.913 33.08C154.253 32.34 153.763 31.48 153.443 30.5C153.123 29.5 152.963 28.41 152.963 27.23ZM163.493 25.61C163.493 25.11 163.423 24.64 163.283 24.2C163.143 23.74 162.933 23.35 162.653 23.03C162.393 22.69 162.063 22.43 161.663 22.25C161.283 22.05 160.823 21.95 160.283 21.95C159.723 21.95 159.233 22.06 158.813 22.28C158.393 22.48 158.033 22.75 157.733 23.09C157.453 23.43 157.233 23.82 157.073 24.26C156.913 24.7 156.803 25.15 156.743 25.61H163.493ZM170.792 15.17L174.422 14.57V19.31H180.002V22.34H174.422V28.73C174.422 29.99 174.622 30.89 175.022 31.43C175.422 31.97 176.102 32.24 177.062 32.24C177.722 32.24 178.302 32.17 178.802 32.03C179.322 31.89 179.732 31.76 180.032 31.64L180.632 34.52C180.212 34.7 179.662 34.88 178.982 35.06C178.302 35.26 177.502 35.36 176.582 35.36C175.462 35.36 174.522 35.21 173.762 34.91C173.022 34.61 172.432 34.18 171.992 33.62C171.552 33.04 171.242 32.35 171.062 31.55C170.882 30.73 170.792 29.8 170.792 28.76V15.17Z" fill="white"/>
<mask id="mask0_115_294" style="mask-type:luminance" maskUnits="userSpaceOnUse" x="0" y="0" width="61" height="48">
<path d="M61 0H0V48H61V0Z" fill="white"/>
</mask>
<g mask="url(#mask0_115_294)">
<path d="M56.2137 45.9334C58.3269 45.9334 60.04 44.2181 60.04 42.1022C60.04 39.9863 58.3269 38.271 56.2137 38.271C54.1005 38.271 52.3875 39.9863 52.3875 42.1022C52.3875 44.2181 54.1005 45.9334 56.2137 45.9334Z" fill="white"/>
<path d="M19.5018 14.469C19.1502 14.0277 18.7046 13.6706 18.1976 13.4238C17.6905 13.177 17.1348 13.0467 16.571 13.0425C15.6191 13.1407 14.7373 13.5888 14.0962 14.3002C13.4551 15.0117 13.1003 15.9359 13.1003 16.8941C13.1003 17.8523 13.4551 18.7765 14.0962 19.4879C14.7373 20.1993 15.6191 20.6474 16.571 20.7456C17.4471 20.7135 18.2894 20.399 18.9726 19.849C21.2838 20.3603 23.3766 21.5844 24.9566 23.3489C26.5366 25.1135 27.5243 27.3296 27.7806 29.6856C28.0369 32.0416 27.549 34.4188 26.3855 36.4826C25.222 38.5464 23.4414 40.1929 21.2945 41.1905C19.1475 42.1881 16.7422 42.4865 14.417 42.0438C12.0918 41.601 9.96376 40.4393 8.3324 38.7222C6.70103 37.0051 5.64845 34.8192 5.32277 32.4718C4.9971 30.1244 5.41471 27.7339 6.51686 25.6366L1.95789 23.0688C0.679203 25.5081 0.00885652 28.2209 0.00405122 30.9758C-0.0398734 34.1808 0.833274 37.3315 2.52036 40.0556C4.20744 42.7798 6.63796 44.9635 9.52479 46.3489C12.4116 47.7342 15.6341 48.2633 18.8117 47.8737C21.9892 47.484 24.9889 46.1919 27.4565 44.1499C29.9242 42.1079 31.7565 39.4015 32.7372 36.3502C33.7179 33.2989 33.8058 30.0304 32.9907 26.9306C32.1756 23.8309 30.4915 21.0295 28.1373 18.8574C25.7832 16.6853 22.8573 15.2333 19.7053 14.6728L19.5018 14.469Z" fill="white"/>
<path d="M55.485 33.4619C55.5662 34.1235 55.8862 34.7325 56.3848 35.1742C56.8834 35.6158 57.5262 35.8596 58.1919 35.8596C58.8576 35.8596 59.5003 35.6158 59.9989 35.1742C60.4976 34.7325 60.8176 34.1235 60.8988 33.4619V17.1589C60.9203 14.9099 60.4958 12.6789 59.6499 10.5954C58.804 8.51182 57.5535 6.61709 55.9708 5.02103C54.3882 3.42497 52.5049 2.1593 50.4301 1.29741C48.3553 0.435529 46.1303 -0.0054464 43.8841 5.07687e-05C41.2144 0.0640521 38.5995 0.771736 36.2611 2.06305C33.9227 3.35436 31.9298 5.19124 30.4514 7.41793C29.1559 5.51609 27.4784 3.90581 25.5261 2.69005C25.406 2.58499 25.2681 2.50219 25.119 2.44552H24.9155L23.8979 1.91565C23.0688 1.53665 22.2114 1.22324 21.3334 0.978251H21.0078L20.0309 0.733717H16.8559C12.6553 0.702031 8.5965 2.25376 5.48599 5.08061C2.37548 7.90746 0.440886 11.8025 0.0665829 15.9919C-0.30772 20.1812 0.905661 24.3583 3.46566 27.6931C6.02565 31.0279 9.74488 33.2763 13.8844 33.9917C14.2904 34.4959 14.8174 34.8889 15.4163 35.1338C16.0151 35.3787 16.6661 35.4676 17.3086 35.3922C17.951 35.3168 18.5639 35.0795 19.0899 34.7026C19.6159 34.3257 20.0379 33.8214 20.3165 33.2368C20.595 32.6523 20.721 32.0066 20.6827 31.36C20.6443 30.7135 20.4429 30.0872 20.0973 29.5398C19.7516 28.9923 19.273 28.5416 18.7062 28.2296C18.1393 27.9176 17.5027 27.7546 16.8559 27.7558C15.98 27.7511 15.1302 28.054 14.4543 28.6118C11.7425 27.9926 9.35198 26.3985 7.73601 24.1318C6.12004 21.8651 5.39099 19.0835 5.68712 16.3144C5.98325 13.5453 7.28396 10.9812 9.3426 9.10853C11.4013 7.23583 14.0747 6.18467 16.8559 6.1544H19.7052C20.3117 6.30382 20.899 6.52265 21.4556 6.80653L22.3104 7.01033C23.6968 7.80885 24.8969 8.89461 25.8306 10.1949C26.7642 11.4953 27.4098 12.9802 27.7241 14.5505C27.7972 15.1018 28.047 15.6144 28.4361 16.0113C28.8251 16.4082 29.3324 16.6679 29.8815 16.7514H30.4514C31.0622 16.743 31.6513 16.5234 32.1187 16.1296C32.5861 15.7359 32.9031 15.1923 33.0158 14.5912C33.5182 12.0393 34.8792 9.73688 36.8718 8.06807C38.8644 6.39927 41.3681 5.46491 43.9655 5.42079C45.4886 5.42071 46.9966 5.72302 48.4022 6.31031C49.8078 6.8976 51.0832 7.75818 52.1545 8.84223C53.2258 9.92627 54.0718 11.2123 54.6434 12.6259C55.2151 14.0394 55.5012 15.5524 55.485 17.0774V33.4619Z" fill="white"/>
</g>
</svg>
