<svg width="16" height="16" viewBox="0 0 16 16" fill="none" xmlns="http://www.w3.org/2000/svg">
<path d="M11.3846 7.38461C11.3846 8.05403 11.1861 8.70841 10.8142 9.265C10.4423 9.8216 9.9137 10.2554 9.29524 10.5116C8.67678 10.7678 7.99625 10.8348 7.3397 10.7042C6.68315 10.5736 6.08006 10.2512 5.60672 9.7779C5.13337 9.30455 4.81102 8.70147 4.68042 8.04492C4.54983 7.38837 4.61685 6.70783 4.87303 6.08938C5.1292 5.47092 5.56301 4.94232 6.11961 4.57041C6.67621 4.1985 7.33059 4 8 4C8.89734 4.00102 9.75764 4.35794 10.3922 4.99245C11.0267 5.62697 11.3836 6.48727 11.3846 7.38461ZM16 8C16 9.58225 15.5308 11.129 14.6518 12.4446C13.7727 13.7602 12.5233 14.7855 11.0615 15.391C9.59966 15.9965 7.99113 16.155 6.43928 15.8463C4.88743 15.5376 3.46197 14.7757 2.34315 13.6569C1.22433 12.538 0.462403 11.1126 0.153721 9.56072C-0.15496 8.00887 0.00346628 6.40034 0.608967 4.93853C1.21447 3.47672 2.23985 2.22729 3.55544 1.34824C4.87103 0.469192 6.41775 0 8 0C10.121 0.00223986 12.1546 0.845814 13.6544 2.34562C15.1542 3.84542 15.9978 5.87895 16 8ZM14.7692 8C14.7682 7.08887 14.5835 6.1873 14.2261 5.3492C13.8687 4.5111 13.3459 3.75369 12.6891 3.12226C12.0322 2.49083 11.2548 1.99835 10.4032 1.67428C9.55169 1.35021 8.64354 1.20119 7.73308 1.23615C4.11 1.37615 1.22077 4.39385 1.23077 8.01923C1.23425 9.66963 1.84294 11.2614 2.94154 12.4931C3.38894 11.8442 3.95726 11.2876 4.61539 10.8538C4.6715 10.8168 4.7382 10.7991 4.8053 10.8036C4.8724 10.808 4.93619 10.8343 4.98693 10.8785C5.82322 11.6018 6.89198 11.9999 7.99769 11.9999C9.10341 11.9999 10.1722 11.6018 11.0085 10.8785C11.0592 10.8343 11.123 10.808 11.1901 10.8036C11.2572 10.7991 11.3239 10.8168 11.38 10.8538C12.039 11.2874 12.6081 11.8439 13.0562 12.4931C14.1602 11.2569 14.7701 9.65737 14.7692 8Z" fill="white"/>
</svg>
