<svg width="72" height="72" viewBox="0 0 72 72" fill="none" xmlns="http://www.w3.org/2000/svg">
<circle cx="36" cy="36" r="36" fill="url(#paint0_linear_126_5744)"/>
<path fill-rule="evenodd" clip-rule="evenodd" d="M16 36C16 24.954 24.954 16 36 16C47.046 16 56 24.954 56 36C56 47.046 47.046 56 36 56C24.954 56 16 47.046 16 36ZM36 20C31.7565 20 27.6869 21.6857 24.6863 24.6863C21.6857 27.6869 20 31.7565 20 36C20 40.2435 21.6857 44.3131 24.6863 47.3137C27.6869 50.3143 31.7565 52 36 52C40.2435 52 44.3131 50.3143 47.3137 47.3137C50.3143 44.3131 52 40.2435 52 36C52 31.7565 50.3143 27.6869 47.3137 24.6863C44.3131 21.6857 40.2435 20 36 20Z" fill="white"/>
<path fill-rule="evenodd" clip-rule="evenodd" d="M38 26C38 25.4696 37.7893 24.9609 37.4142 24.5858C37.0391 24.2107 36.5304 24 36 24C35.4696 24 34.9609 24.2107 34.5858 24.5858C34.2107 24.9609 34 25.4696 34 26V34H26C25.4696 34 24.9609 34.2107 24.5858 34.5858C24.2107 34.9609 24 35.4696 24 36C24 36.5304 24.2107 37.0391 24.5858 37.4142C24.9609 37.7893 25.4696 38 26 38H34V46C34 46.5304 34.2107 47.0391 34.5858 47.4142C34.9609 47.7893 35.4696 48 36 48C36.5304 48 37.0391 47.7893 37.4142 47.4142C37.7893 47.0391 38 46.5304 38 46V38H46C46.5304 38 47.0391 37.7893 47.4142 37.4142C47.7893 37.0391 48 36.5304 48 36C48 35.4696 47.7893 34.9609 47.4142 34.5858C47.0391 34.2107 46.5304 34 46 34H38V26Z" fill="white"/>
<defs>
<linearGradient id="paint0_linear_126_5744" x1="-1.88281e-07" y1="36.5902" x2="72" y2="36.5902" gradientUnits="userSpaceOnUse">
<stop stop-color="#00CAFC"/>
<stop offset="1" stop-color="#0056E2"/>
</linearGradient>
</defs>
</svg>
