<svg width="72" height="72" viewBox="0 0 72 72" fill="none" xmlns="http://www.w3.org/2000/svg">
<circle cx="36" cy="36" r="36" fill="url(#paint0_linear_126_5967)"/>
<path d="M52.1818 23.2727H45.6364V21.0909C45.6364 19.7407 45.1 18.4458 44.1453 17.4911C43.1905 16.5364 41.8956 16 40.5455 16H31.8182C30.468 16 29.1731 16.5364 28.2184 17.4911C27.2636 18.4458 26.7273 19.7407 26.7273 21.0909V23.2727H20.1818C19.6032 23.2727 19.0482 23.5026 18.639 23.9118C18.2299 24.3209 18 24.8759 18 25.4545C18 26.0332 18.2299 26.5882 18.639 26.9973C19.0482 27.4065 19.6032 27.6364 20.1818 27.6364H20.9091V52.3636C20.9091 53.3281 21.2922 54.253 21.9742 54.9349C22.6561 55.6169 23.581 56 24.5455 56H47.8182C48.7826 56 49.7075 55.6169 50.3895 54.9349C51.0714 54.253 51.4545 53.3281 51.4545 52.3636V27.6364H52.1818C52.7605 27.6364 53.3154 27.4065 53.7246 26.9973C54.1338 26.5882 54.3636 26.0332 54.3636 25.4545C54.3636 24.8759 54.1338 24.3209 53.7246 23.9118C53.3154 23.5026 52.7605 23.2727 52.1818 23.2727ZM31.0909 21.0909C31.0909 20.898 31.1675 20.713 31.3039 20.5766C31.4403 20.4403 31.6253 20.3636 31.8182 20.3636H40.5455C40.7383 20.3636 40.9233 20.4403 41.0597 20.5766C41.1961 20.713 41.2727 20.898 41.2727 21.0909V23.2727H31.0909V21.0909ZM47.0909 51.6364H25.2727V27.6364H47.0909V51.6364ZM34 33.4545V45.0909C34 45.6696 33.7701 46.2245 33.361 46.6337C32.9518 47.0429 32.3968 47.2727 31.8182 47.2727C31.2395 47.2727 30.6846 47.0429 30.2754 46.6337C29.8662 46.2245 29.6364 45.6696 29.6364 45.0909V33.4545C29.6364 32.8759 29.8662 32.3209 30.2754 31.9118C30.6846 31.5026 31.2395 31.2727 31.8182 31.2727C32.3968 31.2727 32.9518 31.5026 33.361 31.9118C33.7701 32.3209 34 32.8759 34 33.4545ZM42.7273 33.4545V45.0909C42.7273 45.6696 42.4974 46.2245 42.0882 46.6337C41.6791 47.0429 41.1241 47.2727 40.5455 47.2727C39.9668 47.2727 39.4118 47.0429 39.0027 46.6337C38.5935 46.2245 38.3636 45.6696 38.3636 45.0909V33.4545C38.3636 32.8759 38.5935 32.3209 39.0027 31.9118C39.4118 31.5026 39.9668 31.2727 40.5455 31.2727C41.1241 31.2727 41.6791 31.5026 42.0882 31.9118C42.4974 32.3209 42.7273 32.8759 42.7273 33.4545Z" fill="white"/>
<defs>
<linearGradient id="paint0_linear_126_5967" x1="-1.88281e-07" y1="36.5902" x2="72" y2="36.5902" gradientUnits="userSpaceOnUse">
<stop stop-color="#00CAFC"/>
<stop offset="1" stop-color="#0056E2"/>
</linearGradient>
</defs>
</svg>
