<svg width="15" height="16" viewBox="0 0 15 16" fill="none" xmlns="http://www.w3.org/2000/svg">
<path d="M13.6727 2.90909H11.0545V2.03636C11.0545 1.49629 10.84 0.978329 10.4581 0.596437C10.0762 0.214545 9.55826 0 9.01818 0H5.52727C4.9872 0 4.46924 0.214545 4.08735 0.596437C3.70545 0.978329 3.49091 1.49629 3.49091 2.03636V2.90909H0.872727C0.641266 2.90909 0.419284 3.00104 0.255616 3.16471C0.0919478 3.32837 0 3.55036 0 3.78182C0 4.01328 0.0919478 4.23526 0.255616 4.39893C0.419284 4.5626 0.641266 4.65455 0.872727 4.65455H1.16364V14.5455C1.16364 14.9312 1.31688 15.3012 1.58966 15.574C1.86244 15.8468 2.23241 16 2.61818 16H11.9273C12.313 16 12.683 15.8468 12.9558 15.574C13.2286 15.3012 13.3818 14.9312 13.3818 14.5455V4.65455H13.6727C13.9042 4.65455 14.1262 4.5626 14.2898 4.39893C14.4535 4.23526 14.5455 4.01328 14.5455 3.78182C14.5455 3.55036 14.4535 3.32837 14.2898 3.16471C14.1262 3.00104 13.9042 2.90909 13.6727 2.90909ZM5.23636 2.03636C5.23636 1.95921 5.26701 1.88522 5.32157 1.83066C5.37613 1.7761 5.45012 1.74545 5.52727 1.74545H9.01818C9.09534 1.74545 9.16933 1.7761 9.22389 1.83066C9.27844 1.88522 9.30909 1.95921 9.30909 2.03636V2.90909H5.23636V2.03636ZM11.6364 14.2545H2.90909V4.65455H11.6364V14.2545ZM6.4 6.98182V11.6364C6.4 11.8678 6.30805 12.0898 6.14438 12.2535C5.98072 12.4171 5.75873 12.5091 5.52727 12.5091C5.29581 12.5091 5.07383 12.4171 4.91016 12.2535C4.74649 12.0898 4.65455 11.8678 4.65455 11.6364V6.98182C4.65455 6.75036 4.74649 6.52837 4.91016 6.36471C5.07383 6.20104 5.29581 6.10909 5.52727 6.10909C5.75873 6.10909 5.98072 6.20104 6.14438 6.36471C6.30805 6.52837 6.4 6.75036 6.4 6.98182ZM9.89091 6.98182V11.6364C9.89091 11.8678 9.79896 12.0898 9.63529 12.2535C9.47163 12.4171 9.24964 12.5091 9.01818 12.5091C8.78672 12.5091 8.56474 12.4171 8.40107 12.2535C8.2374 12.0898 8.14546 11.8678 8.14546 11.6364V6.98182C8.14546 6.75036 8.2374 6.52837 8.40107 6.36471C8.56474 6.20104 8.78672 6.10909 9.01818 6.10909C9.24964 6.10909 9.47163 6.20104 9.63529 6.36471C9.79896 6.52837 9.89091 6.75036 9.89091 6.98182Z" fill="white"/>
</svg>
