<svg width="16" height="16" viewBox="0 0 16 16" fill="none" xmlns="http://www.w3.org/2000/svg">
<path d="M6.80169 0.0168848C6.27511 0.0472651 5.84641 0.104649 5.74852 0.148531C5.573 0.236295 5.49198 0.39832 5.50886 0.637982C5.52236 0.816885 5.53924 0.854016 5.64726 0.965408C5.77215 1.0903 5.77553 1.0903 6.05232 1.0903C6.20422 1.0903 6.70042 1.07005 7.15612 1.04305C9.31646 0.921527 11.6996 1.23545 13.2624 1.8498C14.4135 2.29874 15.0819 2.89959 14.9536 3.36541C14.9333 3.44305 14.9097 3.50381 14.8996 3.50381C14.8928 3.50381 14.8253 3.46667 14.7578 3.42279C14.5249 3.27765 13.9983 3.02448 13.6203 2.87933C11.5173 2.06921 8.35781 1.77891 5.50211 2.14009C3.82447 2.34937 2.26498 2.8152 1.31308 3.38904C1.20844 3.45317 1.11392 3.50381 1.1038 3.50381C1.0903 3.50381 1.06667 3.44305 1.04641 3.36541C0.941772 2.98397 1.40084 2.47764 2.21435 2.08271C2.41013 1.98482 2.60253 1.86667 2.64979 1.81267C2.86245 1.5595 2.77131 1.14094 2.47764 1.01942C2.26835 0.931653 2.12658 0.958657 1.71814 1.16794C0.924895 1.56963 0.408439 2.0287 0.145148 2.56878L0 2.86246V4.2498V5.63714L0.15865 5.94431C0.567089 6.73419 1.4211 7.31478 2.87257 7.78397C4.01688 8.15528 5.29283 8.37807 6.81519 8.46921L7.49367 8.51309V9.50212V10.4911H6.72405H5.95106L5.91055 10.346C5.79578 9.96119 5.50886 9.58313 5.14093 9.32997C4.04051 8.5806 2.50464 9.10043 2.08945 10.3629C1.97468 10.7106 1.97468 11.2844 2.08608 11.6084C2.18059 11.8785 2.35612 12.1857 2.52152 12.3544L2.64304 12.4793L2.48776 12.6549C1.94093 13.2793 1.83966 14.211 2.2346 14.957C2.40675 15.281 2.76456 15.6186 3.10886 15.784C3.44304 15.9426 3.6557 15.9933 4.01013 15.9933C4.77975 15.9899 5.47511 15.5612 5.80591 14.8793C5.88017 14.7241 5.94093 14.5755 5.94093 14.5519C5.94093 14.5148 6.32911 14.508 8 14.508C9.67089 14.508 10.0591 14.5148 10.0591 14.5519C10.0591 14.5755 10.1198 14.7241 10.1941 14.8793C10.4473 15.3992 10.9603 15.811 11.5173 15.9426C12.2059 16.1046 12.9215 15.9021 13.4143 15.4059C13.6911 15.1291 13.8464 14.8591 13.9409 14.4878C14.1063 13.843 13.9443 13.1477 13.5122 12.6549L13.357 12.4793L13.4785 12.3544C13.6439 12.1857 13.8194 11.8785 13.9139 11.6084C14.0253 11.2844 14.0253 10.7106 13.9105 10.3629C13.627 9.49537 12.7662 8.91815 11.8515 8.98566C11.038 9.04642 10.3089 9.61013 10.0895 10.346L10.0489 10.4911H9.27595H8.50633V9.50212V8.51309L9.17468 8.47258C11.0515 8.35781 12.6278 8.03376 13.9004 7.50043C14.8793 7.08862 15.5105 6.58566 15.8414 5.94431L16 5.63714V4.24642V2.8557L15.8414 2.54853C15.5105 1.90718 14.8793 1.40423 13.9004 0.992413C12.6785 0.479333 11.1089 0.148531 9.31646 0.0270119C8.87426 -0.00336838 7.22363 -0.0101185 6.80169 0.0168848ZM9.38397 3.06836C10.6937 3.14937 11.9122 3.37554 12.9316 3.72659C13.384 3.87849 14.0759 4.19241 14.0759 4.24642C14.0759 4.2768 13.5966 4.51309 13.2557 4.64811C12.2734 5.03629 10.9333 5.30971 9.38397 5.42786C8.79325 5.47511 7.20338 5.47511 6.59916 5.42786C5.20169 5.31984 3.92911 5.0768 2.97046 4.72912C2.54852 4.57722 1.92405 4.28693 1.92405 4.24642C1.92405 4.17554 2.81181 3.79072 3.34852 3.62532C5.00253 3.12237 7.13249 2.92321 9.38397 3.06836ZM1.69789 5.31309C4.80675 6.87596 10.9873 6.90634 14.1772 5.37385C14.3899 5.27258 14.6565 5.12743 14.7747 5.05317L14.9873 4.92153V5.10043C14.9873 5.45824 14.8253 5.72153 14.4203 6.02532C12.7426 7.29115 8.55696 7.82448 4.97215 7.23039C2.8962 6.88946 1.30295 6.14347 1.04979 5.39748C1.02954 5.33334 1.01266 5.2017 1.01266 5.10043V4.91815L1.19831 5.03967C1.30295 5.10381 1.52574 5.2287 1.69789 5.31309ZM4.3308 10.0726C4.54684 10.1468 4.8 10.3798 4.89114 10.589C4.93165 10.6836 4.97215 10.8523 4.98565 10.9637C5.00928 11.2068 5.10042 11.362 5.26582 11.443C5.37384 11.5004 5.57637 11.5038 8 11.5038C10.4236 11.5038 10.6262 11.5004 10.7342 11.443C10.8996 11.362 10.9907 11.2068 11.0143 10.9637C11.0481 10.67 11.1527 10.4473 11.3485 10.2717C11.7536 9.90718 12.3679 9.94094 12.7291 10.3494C13.2557 10.9502 12.8608 11.8954 12.0473 11.9663C11.7063 12 11.497 12.1924 11.497 12.4726C11.5004 12.7933 11.6726 12.9654 12.0304 13.0059C12.2903 13.0363 12.4759 13.1173 12.6515 13.276C13.0633 13.6473 13.0734 14.2987 12.6717 14.6836C12.3241 15.0144 11.8076 15.0549 11.4329 14.7781C11.1797 14.5924 11.0616 14.373 11.0076 14.0017C10.9705 13.7215 10.8861 13.5899 10.7004 13.5156C10.5789 13.4684 10.2819 13.4616 8 13.4616C5.71814 13.4616 5.4211 13.4684 5.29958 13.5156C5.12068 13.5865 5.02954 13.7215 4.99578 13.9679C4.95527 14.2481 4.90127 14.4 4.7865 14.5587C4.59409 14.8219 4.18903 15.0076 3.90549 14.9637C3.55781 14.9063 3.26076 14.6903 3.11899 14.3899C3.01435 14.1738 3.0076 13.816 3.10211 13.6101C3.24051 13.3063 3.61181 13.0228 3.87173 13.0228C4.02025 13.0228 4.04388 12.9654 4.07089 12.5232C4.10127 12.0236 4.09114 11.9899 3.89198 11.9629C3.12911 11.8582 2.76793 10.9401 3.26414 10.3595C3.52405 10.0557 3.94599 9.94094 4.3308 10.0726Z" fill="white"/>
<path d="M3.7603 0.496203C3.50039 0.654853 3.42275 0.908017 3.55102 1.16793C3.64553 1.36034 3.79068 1.45148 3.99997 1.45148C4.40165 1.45148 4.63456 1.05992 4.44891 0.705485C4.31726 0.452321 3.99321 0.354431 3.7603 0.496203Z" fill="white"/>
</svg>
