<svg width="20" height="20" viewBox="0 0 20 20" fill="none" xmlns="http://www.w3.org/2000/svg">
<path d="M8.78922 15.3807C9.65482 15.3807 10.512 15.2102 11.3117 14.879C12.1114 14.5477 12.838 14.0622 13.4501 13.4501C14.0622 12.838 14.5477 12.1114 14.879 11.3117C15.2102 10.5119 15.3807 9.65481 15.3807 8.78921C15.3807 7.9236 15.2102 7.06647 14.879 6.26675C14.5477 5.46704 14.0622 4.7404 13.4501 4.12832C12.838 3.51624 12.1114 3.03072 11.3117 2.69946C10.512 2.36821 9.65482 2.19772 8.78922 2.19772C7.04104 2.19772 5.36447 2.89218 4.12832 4.12832C2.89218 5.36446 2.19772 7.04104 2.19772 8.78921C2.19772 10.5374 2.89218 12.214 4.12832 13.4501C5.36447 14.6862 7.04104 15.3807 8.78922 15.3807ZM15.7323 14.1789L19.6652 18.1118C19.77 18.2132 19.8536 18.3345 19.9111 18.4685C19.9686 18.6026 19.9988 18.7468 20 18.8927C20.0011 19.0385 19.9732 19.1832 19.9179 19.3181C19.8626 19.4531 19.7809 19.5757 19.6777 19.6788C19.5745 19.7819 19.4517 19.8633 19.3167 19.9185C19.1817 19.9736 19.037 20.0013 18.8911 20C18.7452 19.9986 18.6011 19.9682 18.4671 19.9105C18.3331 19.8528 18.212 19.7691 18.1107 19.6641L14.1778 15.7311C12.4117 17.102 10.1897 17.7483 7.96391 17.5385C5.73814 17.3287 3.67598 16.2786 2.19723 14.6019C0.718473 12.9252 -0.0657085 10.7479 0.00431635 8.51338C0.0743412 6.27884 0.993308 4.15497 2.57414 2.57414C4.15498 0.993307 6.27885 0.0743411 8.51339 0.00431635C10.7479 -0.0657084 12.9252 0.718472 14.6019 2.19722C16.2786 3.67597 17.3287 5.73813 17.5385 7.9639C17.7483 10.1897 17.102 12.4117 15.7312 14.1778L15.7323 14.1789Z" fill="#001E4D"/>
</svg>
