<svg width="71" height="18" viewBox="0 0 71 18" fill="none" xmlns="http://www.w3.org/2000/svg">
<path d="M27.576 15C27.1387 14.072 26.7067 13.1067 26.28 12.104C25.8533 11.1013 25.448 10.1093 25.064 9.128C24.68 8.14667 24.3227 7.208 23.992 6.312C23.672 5.416 23.3947 4.616 23.16 3.912H25.912C26.1253 4.552 26.3547 5.24533 26.6 5.992C26.856 6.728 27.112 7.464 27.368 8.2C27.6347 8.936 27.8907 9.64 28.136 10.312C28.3813 10.984 28.6107 11.5653 28.824 12.056C29.0267 11.5653 29.2507 10.984 29.496 10.312C29.752 9.64 30.008 8.936 30.264 8.2C30.5307 7.464 30.7867 6.728 31.032 5.992C31.288 5.24533 31.5227 4.552 31.736 3.912H34.392C34.1467 4.616 33.864 5.416 33.544 6.312C33.224 7.208 32.872 8.14667 32.488 9.128C32.104 10.1093 31.6987 11.1013 31.272 12.104C30.8453 13.1067 30.4133 14.072 29.976 15H27.576ZM42.6639 10.776C42.6639 11.4373 42.5679 12.0453 42.3759 12.6C42.1839 13.144 41.9065 13.6133 41.5439 14.008C41.1812 14.392 40.7439 14.6907 40.2319 14.904C39.7305 15.1173 39.1652 15.224 38.5359 15.224C37.9172 15.224 37.3519 15.1173 36.8399 14.904C36.3385 14.6907 35.9065 14.392 35.5439 14.008C35.1812 13.6133 34.8985 13.144 34.6959 12.6C34.4932 12.0453 34.3919 11.4373 34.3919 10.776C34.3919 10.1147 34.4932 9.512 34.6959 8.968C34.9092 8.424 35.1972 7.96 35.5599 7.576C35.9332 7.192 36.3705 6.89333 36.8719 6.68C37.3839 6.46667 37.9385 6.36 38.5359 6.36C39.1439 6.36 39.6985 6.46667 40.1999 6.68C40.7119 6.89333 41.1492 7.192 41.5119 7.576C41.8745 7.96 42.1572 8.424 42.3599 8.968C42.5625 9.512 42.6639 10.1147 42.6639 10.776ZM40.2319 10.776C40.2319 10.04 40.0825 9.464 39.7839 9.048C39.4959 8.62133 39.0799 8.408 38.5359 8.408C37.9919 8.408 37.5705 8.62133 37.2719 9.048C36.9732 9.464 36.8239 10.04 36.8239 10.776C36.8239 11.512 36.9732 12.0987 37.2719 12.536C37.5705 12.9627 37.9919 13.176 38.5359 13.176C39.0799 13.176 39.4959 12.9627 39.7839 12.536C40.0825 12.0987 40.2319 11.512 40.2319 10.776ZM47.8706 15.16C47.1773 15.1493 46.612 15.0747 46.1746 14.936C45.748 14.7973 45.4066 14.6053 45.1506 14.36C44.9053 14.104 44.7346 13.8 44.6386 13.448C44.5533 13.0853 44.5106 12.68 44.5106 12.232V2.968L46.8946 2.584V11.752C46.8946 11.9653 46.9106 12.1573 46.9426 12.328C46.9746 12.4987 47.0333 12.6427 47.1186 12.76C47.2146 12.8773 47.348 12.9733 47.5186 13.048C47.6893 13.1227 47.9186 13.1707 48.2066 13.192L47.8706 15.16ZM49.4931 4.488L51.8771 4.104V6.584H54.7411V8.568H51.8771V11.528C51.8771 12.0293 51.9625 12.4293 52.1331 12.728C52.3145 13.0267 52.6718 13.176 53.2051 13.176C53.4611 13.176 53.7225 13.1547 53.9891 13.112C54.2665 13.0587 54.5171 12.9893 54.7411 12.904L55.0771 14.76C54.7891 14.8773 54.4691 14.9787 54.1171 15.064C53.7651 15.1493 53.3331 15.192 52.8211 15.192C52.1705 15.192 51.6318 15.1067 51.2051 14.936C50.7785 14.7547 50.4371 14.5093 50.1811 14.2C49.9251 13.88 49.7438 13.496 49.6371 13.048C49.5411 12.6 49.4931 12.104 49.4931 11.56V4.488ZM59.586 13.336C59.8207 13.336 60.0447 13.3307 60.258 13.32C60.4713 13.3093 60.642 13.2933 60.77 13.272V11.464C60.674 11.4427 60.53 11.4213 60.338 11.4C60.146 11.3787 59.97 11.368 59.81 11.368C59.586 11.368 59.3727 11.384 59.17 11.416C58.978 11.4373 58.8073 11.4853 58.658 11.56C58.5087 11.6347 58.3913 11.736 58.306 11.864C58.2207 11.992 58.178 12.152 58.178 12.344C58.178 12.7173 58.3007 12.9787 58.546 13.128C58.802 13.2667 59.1487 13.336 59.586 13.336ZM59.394 6.36C60.098 6.36 60.6847 6.44 61.154 6.6C61.6233 6.76 61.9967 6.98933 62.274 7.288C62.562 7.58667 62.7647 7.94933 62.882 8.376C62.9993 8.80267 63.058 9.27733 63.058 9.8V14.76C62.7167 14.8347 62.242 14.92 61.634 15.016C61.026 15.1227 60.29 15.176 59.426 15.176C58.882 15.176 58.386 15.128 57.938 15.032C57.5007 14.936 57.122 14.7813 56.802 14.568C56.482 14.344 56.2367 14.056 56.066 13.704C55.8953 13.352 55.81 12.92 55.81 12.408C55.81 11.9173 55.906 11.5013 56.098 11.16C56.3007 10.8187 56.5673 10.5467 56.898 10.344C57.2287 10.1413 57.6073 9.99733 58.034 9.912C58.4607 9.816 58.9033 9.768 59.362 9.768C59.6713 9.768 59.9433 9.784 60.178 9.816C60.4233 9.83733 60.6207 9.86933 60.77 9.912V9.688C60.77 9.28267 60.6473 8.95733 60.402 8.712C60.1567 8.46667 59.73 8.344 59.122 8.344C58.7167 8.344 58.3167 8.376 57.922 8.44C57.5273 8.49333 57.186 8.57333 56.898 8.68L56.594 6.76C56.7327 6.71733 56.9033 6.67467 57.106 6.632C57.3193 6.57867 57.5487 6.536 57.794 6.504C58.0393 6.46133 58.2953 6.42933 58.562 6.408C58.8393 6.376 59.1167 6.36 59.394 6.36ZM70.2858 8.696C70.0724 8.64267 69.8218 8.58933 69.5338 8.536C69.2458 8.472 68.9364 8.44 68.6058 8.44C68.4564 8.44 68.2751 8.456 68.0618 8.488C67.8591 8.50933 67.7044 8.536 67.5978 8.568V15H65.2138V7.032C65.6404 6.88267 66.1418 6.744 66.7178 6.616C67.3044 6.47733 67.9551 6.408 68.6698 6.408C68.7978 6.408 68.9524 6.41867 69.1338 6.44C69.3151 6.45067 69.4964 6.472 69.6778 6.504C69.8591 6.52533 70.0404 6.55733 70.2218 6.6C70.4031 6.632 70.5578 6.67467 70.6858 6.728L70.2858 8.696Z" fill="url(#paint0_linear_127_7160)"/>
<path fill-rule="evenodd" clip-rule="evenodd" d="M8.00031 1C3.58328 1 0 4.58328 0 9.00031C0 13.4173 3.58328 17.0006 8.00031 17.0006C12.4173 17.0006 16.0006 13.4173 16.0006 9.00031C16.0006 4.58328 12.4173 1 8.00031 1ZM1.88633 9.00031C1.88633 5.62507 4.62507 2.88633 8.00031 2.88633C11.3755 2.88633 14.1143 5.62507 14.1143 9.00031C14.1143 12.3755 11.3755 15.1143 8.00031 15.1143C4.62507 15.1143 1.88633 12.3755 1.88633 9.00031ZM8.42656 6.72431C8.79345 6.35455 8.79112 5.75738 8.42137 5.39049C8.05161 5.02359 7.45444 5.02592 7.08754 5.39568L4.16986 8.33615C3.80498 8.70388 3.80498 9.29706 4.16986 9.66479L7.08754 12.6053C7.45444 12.975 8.05161 12.9773 8.42137 12.6105C8.79112 12.2436 8.79345 11.6464 8.42656 11.2766L7.10389 9.94363H11.1614C11.6823 9.94363 12.1045 9.52136 12.1045 9.00047C12.1045 8.47957 11.6823 8.05731 11.1614 8.05731H7.10389L8.42656 6.72431Z" fill="url(#paint1_linear_127_7160)"/>
<defs>
<linearGradient id="paint0_linear_127_7160" x1="23" y1="9.14754" x2="71" y2="9.14754" gradientUnits="userSpaceOnUse">
<stop stop-color="#00CAFC"/>
<stop offset="1" stop-color="#0056E2"/>
</linearGradient>
<linearGradient id="paint1_linear_127_7160" x1="-4.18418e-08" y1="9.13146" x2="16.0006" y2="9.13146" gradientUnits="userSpaceOnUse">
<stop stop-color="#00CAFC"/>
<stop offset="1" stop-color="#0056E2"/>
</linearGradient>
</defs>
</svg>
