<svg width="72" height="72" viewBox="0 0 72 72" fill="none" xmlns="http://www.w3.org/2000/svg">
<circle cx="36" cy="36" r="36" fill="url(#paint0_linear_126_5882)"/>
<path fill-rule="evenodd" clip-rule="evenodd" d="M49.6768 17C48.0004 17 46.3926 17.6657 45.2068 18.8506L45.2052 18.8522L42.5906 21.4575C42.4853 21.5284 42.3852 21.6105 42.292 21.7037C42.2005 21.7951 42.1198 21.8932 42.0498 21.9964L27.8826 36.1131C27.506 36.4884 27.2943 36.9982 27.2943 37.5298V43.7064C27.2943 44.811 28.1897 45.7064 29.2943 45.7064H35.4708C36.0025 45.7064 36.5123 45.4947 36.8875 45.1181L51.0042 30.9509C51.1074 30.8808 51.2055 30.8001 51.297 30.7087C51.3901 30.6155 51.4722 30.5154 51.5432 30.41L54.1485 27.7954L54.1497 27.7941C55.3349 26.6083 56.0007 25.0004 56.0007 23.3238C56.0007 21.6466 55.3344 20.0381 54.1485 18.8522C52.9625 17.6663 51.354 17 49.6768 17ZM31.2943 38.3604L43.7294 25.9696L47.0311 29.2712L34.6403 41.7064H31.2943V38.3604ZM46.5629 23.1462L49.8545 26.4378L51.3175 24.9695L51.32 24.967C51.7558 24.5312 52.0007 23.9401 52.0007 23.3238C52.0007 22.7075 51.7558 22.1164 51.32 21.6806C50.8842 21.2448 50.2932 21 49.6768 21C49.0605 21 48.4695 21.2448 48.0337 21.6806L48.0312 21.6831L46.5629 23.1462ZM23.1177 25.2355C21.4952 25.2355 19.9391 25.88 18.7918 27.0273C17.6445 28.1746 17 29.7306 17 31.3532V49.8828C17 51.5053 17.6445 53.0614 18.7918 54.2087C19.9391 55.3559 21.4952 56.0005 23.1177 56.0005H41.6473C43.2698 56.0005 44.8259 55.3559 45.9732 54.2087C47.1205 53.0614 47.765 51.5053 47.765 49.8828V47.8239C47.765 46.7194 46.8696 45.8239 45.765 45.8239C44.6605 45.8239 43.765 46.7194 43.765 47.8239V49.8828C43.765 50.4444 43.5419 50.9831 43.1448 51.3802C42.7476 51.7774 42.209 52.0005 41.6473 52.0005H23.1177C22.556 52.0005 22.0174 51.7774 21.6203 51.3802C21.2231 50.9831 21 50.4444 21 49.8828V31.3532C21 30.7915 21.2231 30.2529 21.6203 29.8557C22.0174 29.4586 22.556 29.2355 23.1177 29.2355H25.1765C26.2811 29.2355 27.1765 28.34 27.1765 27.2355C27.1765 26.1309 26.2811 25.2355 25.1765 25.2355H23.1177Z" fill="white"/>
<defs>
<linearGradient id="paint0_linear_126_5882" x1="-1.88281e-07" y1="36.5902" x2="72" y2="36.5902" gradientUnits="userSpaceOnUse">
<stop stop-color="#00CAFC"/>
<stop offset="1" stop-color="#0056E2"/>
</linearGradient>
</defs>
</svg>
