<svg width="16" height="16" viewBox="0 0 16 16" fill="none" xmlns="http://www.w3.org/2000/svg">
<path d="M6.80169 0.0170069C6.27511 0.0473871 5.84641 0.104771 5.74852 0.148653C5.573 0.236417 5.49198 0.398442 5.50886 0.638104C5.52236 0.817007 5.53924 0.854138 5.64726 0.96553C5.77215 1.09043 5.77553 1.09043 6.05232 1.09043C6.20422 1.09043 6.70042 1.07017 7.15612 1.04317C9.31646 0.921649 11.6996 1.23557 13.2624 1.84992C14.4135 2.29886 15.0819 2.89971 14.9536 3.36553C14.9333 3.44317 14.9097 3.50393 14.8996 3.50393C14.8928 3.50393 14.8253 3.4668 14.7578 3.42291C14.5249 3.27777 13.9983 3.0246 13.6203 2.87945C11.5173 2.06933 8.35781 1.77903 5.50211 2.14021C3.82447 2.3495 2.26498 2.81532 1.31308 3.38916C1.20844 3.45329 1.11392 3.50393 1.1038 3.50393C1.0903 3.50393 1.06667 3.44317 1.04641 3.36553C0.941772 2.9841 1.40084 2.47777 2.21435 2.08283C2.41013 1.98494 2.60253 1.8668 2.64979 1.81279C2.86245 1.55962 2.77131 1.14106 2.47764 1.01954C2.26835 0.931775 2.12658 0.958779 1.71814 1.16806C0.924895 1.56975 0.408439 2.02882 0.145148 2.56891L0 2.86258V4.24992V5.63726L0.15865 5.94443C0.567089 6.73431 1.4211 7.3149 2.87257 7.7841C4.01688 8.1554 5.29283 8.37819 6.81519 8.46933L7.49367 8.51321V9.50224V10.4913H6.72405H5.95106L5.91055 10.3461C5.79578 9.96131 5.50886 9.58325 5.14093 9.33009C4.04051 8.58072 2.50464 9.10055 2.08945 10.363C1.97468 10.7107 1.97468 11.2845 2.08608 11.6086C2.18059 11.8786 2.35612 12.1858 2.52152 12.3546L2.64304 12.4795L2.48776 12.655C1.94093 13.2795 1.83966 14.2111 2.2346 14.9571C2.40675 15.2811 2.76456 15.6187 3.10886 15.7841C3.44304 15.9427 3.6557 15.9934 4.01013 15.9934C4.77975 15.99 5.47511 15.5613 5.80591 14.8795C5.88017 14.7242 5.94093 14.5757 5.94093 14.552C5.94093 14.5149 6.32911 14.5081 8 14.5081C9.67089 14.5081 10.0591 14.5149 10.0591 14.552C10.0591 14.5757 10.1198 14.7242 10.1941 14.8795C10.4473 15.3993 10.9603 15.8111 11.5173 15.9427C12.2059 16.1048 12.9215 15.9022 13.4143 15.406C13.6911 15.1292 13.8464 14.8592 13.9409 14.4879C14.1063 13.8432 13.9443 13.1478 13.5122 12.655L13.357 12.4795L13.4785 12.3546C13.6439 12.1858 13.8194 11.8786 13.9139 11.6086C14.0253 11.2845 14.0253 10.7107 13.9105 10.363C13.627 9.49549 12.7662 8.91827 11.8515 8.98578C11.038 9.04654 10.3089 9.61026 10.0895 10.3461L10.0489 10.4913H9.27595H8.50633V9.50224V8.51321L9.17468 8.4727C11.0515 8.35794 12.6278 8.03389 13.9004 7.50055C14.8793 7.08874 15.5105 6.58578 15.8414 5.94443L16 5.63726V4.24654V2.85583L15.8414 2.54865C15.5105 1.9073 14.8793 1.40435 13.9004 0.992535C12.6785 0.479455 11.1089 0.148653 9.31646 0.0271339C8.87426 -0.00324631 7.22363 -0.00999641 6.80169 0.0170069ZM9.38397 3.06848C10.6937 3.1495 11.9122 3.37566 12.9316 3.72671C13.384 3.87861 14.0759 4.19253 14.0759 4.24654C14.0759 4.27692 13.5966 4.51321 13.2557 4.64823C12.2734 5.03642 10.9333 5.30983 9.38397 5.42798C8.79325 5.47523 7.20338 5.47523 6.59916 5.42798C5.20169 5.31996 3.92911 5.07692 2.97046 4.72924C2.54852 4.57734 1.92405 4.28705 1.92405 4.24654C1.92405 4.17566 2.81181 3.79085 3.34852 3.62545C5.00253 3.12249 7.13249 2.92334 9.38397 3.06848ZM1.69789 5.31321C4.80675 6.87608 10.9873 6.90646 14.1772 5.37397C14.3899 5.2727 14.6565 5.12756 14.7747 5.05329L14.9873 4.92165V5.10055C14.9873 5.45836 14.8253 5.72165 14.4203 6.02545C12.7426 7.29127 8.55696 7.8246 4.97215 7.23051C2.8962 6.88958 1.30295 6.14359 1.04979 5.3976C1.02954 5.33346 1.01266 5.20182 1.01266 5.10055V4.91827L1.19831 5.03979C1.30295 5.10393 1.52574 5.22882 1.69789 5.31321ZM4.3308 10.0727C4.54684 10.147 4.8 10.3799 4.89114 10.5892C4.93165 10.6837 4.97215 10.8525 4.98565 10.9638C5.00928 11.2069 5.10042 11.3622 5.26582 11.4432C5.37384 11.5006 5.57637 11.5039 8 11.5039C10.4236 11.5039 10.6262 11.5006 10.7342 11.4432C10.8996 11.3622 10.9907 11.2069 11.0143 10.9638C11.0481 10.6702 11.1527 10.4474 11.3485 10.2719C11.7536 9.9073 12.3679 9.94106 12.7291 10.3495C13.2557 10.9503 12.8608 11.8955 12.0473 11.9664C11.7063 12.0001 11.497 12.1925 11.497 12.4727C11.5004 12.7934 11.6726 12.9655 12.0304 13.006C12.2903 13.0364 12.4759 13.1174 12.6515 13.2761C13.0633 13.6474 13.0734 14.2989 12.6717 14.6837C12.3241 15.0145 11.8076 15.055 11.4329 14.7782C11.1797 14.5925 11.0616 14.3731 11.0076 14.0018C10.9705 13.7216 10.8861 13.59 10.7004 13.5157C10.5789 13.4685 10.2819 13.4617 8 13.4617C5.71814 13.4617 5.4211 13.4685 5.29958 13.5157C5.12068 13.5866 5.02954 13.7216 4.99578 13.9681C4.95527 14.2482 4.90127 14.4001 4.7865 14.5588C4.59409 14.8221 4.18903 15.0077 3.90549 14.9638C3.55781 14.9065 3.26076 14.6904 3.11899 14.39C3.01435 14.174 3.0076 13.8162 3.10211 13.6103C3.24051 13.3065 3.61181 13.0229 3.87173 13.0229C4.02025 13.0229 4.04388 12.9655 4.07089 12.5233C4.10127 12.0238 4.09114 11.99 3.89198 11.963C3.12911 11.8584 2.76793 10.9402 3.26414 10.3596C3.52405 10.0558 3.94599 9.94106 4.3308 10.0727Z" fill="white"/>
<path d="M3.76033 0.496386C3.50042 0.655036 3.42278 0.9082 3.55105 1.16812C3.64557 1.36052 3.79071 1.45166 4 1.45166C4.40168 1.45166 4.63459 1.0601 4.44894 0.705669C4.3173 0.452504 3.99324 0.354614 3.76033 0.496386Z" fill="white"/>
</svg>
