<svg width="65" height="65" viewBox="0 0 65 65" fill="none" xmlns="http://www.w3.org/2000/svg">
<circle cx="32.5" cy="32.5" r="32.5" fill="url(#paint0_linear_125_3683)"/>
<path fill-rule="evenodd" clip-rule="evenodd" d="M38.9132 50.2238H25.9457C25.8268 50.2238 25.7078 50.1762 25.6126 50.1049L16.4522 42.2768C16.3094 42.1578 16.2618 41.9675 16.2856 41.8009L18.7363 28.8573L19.8546 15.0333C19.8784 14.8192 20.0212 14.6288 20.2353 14.5812C20.4494 14.5336 20.6874 14.6288 20.8064 14.8192L24.8275 21.6003C26.3027 21.0292 31.561 19.4827 40.0077 21.6479L44.0526 14.8192C44.1715 14.6288 44.3857 14.5336 44.5998 14.5812C44.814 14.6288 44.9805 14.8192 45.0043 15.0333L46.0988 28.8573L48.5495 41.8009C48.5971 41.9675 48.5257 42.1578 48.383 42.2768L39.2225 50.1049C39.1511 50.1762 39.0321 50.2238 38.9132 50.2238ZM26.1361 49.2007H38.7228L47.5026 41.682L45.0995 29.0238C45.0995 29.008 45.0995 28.9921 45.0995 28.9763L44.1002 16.7226L40.6739 22.4806C40.5549 22.6948 40.3408 22.79 40.1028 22.7186C35.0348 21.3624 31.1327 21.4337 28.7772 21.7193C26.2075 22.0286 24.8275 22.671 24.8275 22.6948C24.5895 22.79 24.304 22.7186 24.1612 22.4806L20.735 16.7226L19.7594 28.9763C19.7436 28.9921 19.7356 29.008 19.7356 29.0238L17.3325 41.682L26.1361 49.2007Z" fill="white"/>
<path fill-rule="evenodd" clip-rule="evenodd" d="M32.4176 39.9926C32.2986 39.9926 32.1558 39.945 32.0607 39.8498L29.0865 36.8756C28.9437 36.7328 28.8961 36.5187 28.9913 36.3284C29.0627 36.138 29.253 36.019 29.4672 36.019H35.3917C35.6059 36.019 35.7724 36.138 35.8676 36.3284C35.939 36.5187 35.8914 36.7328 35.7486 36.8756L32.7745 39.8498C32.6793 39.945 32.5603 39.9926 32.4176 39.9926ZM30.6806 37.0422L32.4176 38.7791L34.1545 37.0422H30.6806Z" fill="white"/>
<path d="M30.6331 43.3952C30.4189 43.3952 30.181 43.3476 29.9193 43.2524C29.6575 43.181 29.5148 42.8955 29.5862 42.61C29.6813 42.3483 29.9669 42.2055 30.2286 42.3007C30.7045 42.4435 30.9424 42.3483 31.0614 42.2293C31.7514 41.7297 31.9179 40.0403 31.9179 39.4931C31.9179 39.2075 32.1321 38.9934 32.4176 38.9934C32.7031 38.9934 32.941 39.2075 32.941 39.4931C32.941 39.7548 32.8934 42.1817 31.6562 43.0621C31.442 43.2286 31.0851 43.3952 30.6331 43.3952Z" fill="white"/>
<path fill-rule="evenodd" clip-rule="evenodd" d="M34.2021 43.3952C33.75 43.3952 33.4169 43.2286 33.179 43.0621C31.9417 42.1817 31.9179 39.7548 31.9179 39.4931C31.9179 39.2075 32.132 38.9934 32.4176 38.9934C32.7031 38.9934 32.941 39.2075 32.941 39.4931C32.941 40.0403 33.0838 41.7534 33.7738 42.2293C33.9166 42.3483 34.1545 42.4435 34.6066 42.3007C34.8683 42.2055 35.1538 42.3483 35.249 42.61C35.3442 42.8955 35.2014 43.181 34.9397 43.2524C34.6542 43.3476 34.4162 43.3952 34.2021 43.3952Z" fill="white"/>
<path d="M38.6991 36.7091C38.5087 36.7091 38.3184 36.5901 38.247 36.3998C38.128 36.1619 38.2232 35.8526 38.4849 35.7336L50.2151 30.2611C50.4768 30.1421 50.7623 30.2373 50.8813 30.499C51.0003 30.7608 50.9051 31.0701 50.6434 31.189L38.9132 36.6615C38.8497 36.6933 38.7784 36.7091 38.6991 36.7091Z" fill="white"/>
<path d="M50.4292 47.3924C50.3499 47.3924 50.2785 47.3766 50.2151 47.3449L38.4849 41.8724C38.2232 41.7534 38.128 41.4441 38.247 41.2061C38.3659 40.9444 38.6515 40.8255 38.9132 40.9444L50.6434 46.4169C50.9051 46.5359 51.0003 46.8452 50.8813 47.1069C50.8099 47.2735 50.6196 47.3924 50.4292 47.3924Z" fill="white"/>
<path d="M53.6413 39.2787H38.2232C37.9615 39.2787 37.7235 39.0408 37.7235 38.7553C37.7235 38.4698 37.9615 38.2556 38.2232 38.2556H53.6413C53.9269 38.2556 54.1648 38.4698 54.1648 38.7553C54.1648 39.0408 53.9269 39.2787 53.6413 39.2787Z" fill="white"/>
<path d="M26.0885 36.3522C26.0251 36.3522 25.9537 36.3363 25.8744 36.3046L14.1442 30.8321C13.9062 30.7131 13.7873 30.4038 13.9062 30.1659C14.0252 29.9041 14.3345 29.7852 14.5725 29.9041L26.3026 35.3766C26.5644 35.4956 26.6833 35.8049 26.5644 36.0666C26.4692 36.257 26.2788 36.3522 26.0885 36.3522Z" fill="white"/>
<path d="M14.3583 47.0592C14.168 47.0592 14.0014 46.9402 13.9062 46.7499C13.7873 46.512 13.9062 46.2027 14.1442 46.0837L25.8744 40.6112C26.1361 40.4922 26.4454 40.5874 26.5644 40.8491C26.6833 41.1108 26.5644 41.4202 26.3026 41.5391L14.5725 47.0116C14.509 47.0434 14.4376 47.0592 14.3583 47.0592Z" fill="white"/>
<path d="M26.5644 38.9221H11.1462C10.8607 38.9221 10.6466 38.7079 10.6466 38.4224C10.6466 38.1369 10.8607 37.8989 11.1462 37.8989H26.5644C26.8499 37.8989 27.0641 38.1369 27.0641 38.4224C27.0641 38.7079 26.8499 38.9221 26.5644 38.9221Z" fill="white"/>
<defs>
<linearGradient id="paint0_linear_125_3683" x1="-1.69976e-07" y1="33.0328" x2="65" y2="33.0328" gradientUnits="userSpaceOnUse">
<stop stop-color="#00CAFC"/>
<stop offset="1" stop-color="#0056E2"/>
</linearGradient>
</defs>
</svg>
