<svg width="16" height="16" viewBox="0 0 16 16" fill="none" xmlns="http://www.w3.org/2000/svg">
<path fill-rule="evenodd" clip-rule="evenodd" d="M0 8C0 3.5816 3.5816 0 8 0C12.4184 0 16 3.5816 16 8C16 12.4184 12.4184 16 8 16C3.5816 16 0 12.4184 0 8ZM8 1.6C6.30261 1.6 4.67475 2.27428 3.47452 3.47452C2.27428 4.67475 1.6 6.30261 1.6 8C1.6 9.69739 2.27428 11.3253 3.47452 12.5255C4.67475 13.7257 6.30261 14.4 8 14.4C9.69739 14.4 11.3253 13.7257 12.5255 12.5255C13.7257 11.3253 14.4 9.69739 14.4 8C14.4 6.30261 13.7257 4.67475 12.5255 3.47452C11.3253 2.27428 9.69739 1.6 8 1.6Z" fill="white"/>
<path fill-rule="evenodd" clip-rule="evenodd" d="M8.79995 3.99995C8.79995 3.78778 8.71567 3.5843 8.56564 3.43427C8.41561 3.28424 8.21212 3.19995 7.99995 3.19995C7.78778 3.19995 7.5843 3.28424 7.43427 3.43427C7.28424 3.5843 7.19995 3.78778 7.19995 3.99995V7.19995H3.99995C3.78778 7.19995 3.5843 7.28424 3.43427 7.43427C3.28424 7.5843 3.19995 7.78778 3.19995 7.99995C3.19995 8.21212 3.28424 8.41561 3.43427 8.56564C3.5843 8.71567 3.78778 8.79995 3.99995 8.79995H7.19995V12C7.19995 12.2121 7.28424 12.4156 7.43427 12.5656C7.5843 12.7157 7.78778 12.8 7.99995 12.8C8.21212 12.8 8.41561 12.7157 8.56564 12.5656C8.71567 12.4156 8.79995 12.2121 8.79995 12V8.79995H12C12.2121 8.79995 12.4156 8.71567 12.5656 8.56564C12.7157 8.41561 12.8 8.21212 12.8 7.99995C12.8 7.78778 12.7157 7.5843 12.5656 7.43427C12.4156 7.28424 12.2121 7.19995 12 7.19995H8.79995V3.99995Z" fill="white"/>
</svg>
