<?xml version="1.0" encoding="iso-8859-1"?>
<!-- Generator: Adobe Illustrator 18.1.1, SVG Export Plug-In . SVG Version: 6.00 Build 0)  -->
<svg version="1.1" id="Capa_1" xmlns="http://www.w3.org/2000/svg" xmlns:xlink="http://www.w3.org/1999/xlink" x="0px" y="0px"
	 viewBox="0 0 41.723 41.723" style="enable-background:new 0 0 41.723 41.723;" xml:space="preserve">
<g>
	<g>
		<path style="fill:#030104;" d="M40.004,18.88c-0.188-0.863-0.701-1.636-1.447-2.176l-1.656-1.197
			c-0.637-0.46-1.402-0.713-2.16-0.713c-1.038,0-1.962,0.454-2.533,1.245l-1.093,1.511c-0.267,0.367-0.29,0.818-0.146,1.215
			c-0.422-0.005-0.848,0.158-1.102,0.508L19.271,33.928c-0.266,0.368-0.29,0.822-0.143,1.22c-0.069,0.015-0.134,0.034-0.179,0.058
			l-0.054-0.039l0.005,0.066c-0.151,0.092-0.517,0.383-0.467,1.01l0.339,4.349c0.029,0.374,0.206,0.694,0.497,0.905
			c0.204,0.146,0.448,0.226,0.706,0.226c0.111,0,0.226-0.015,0.334-0.045l4.119-1.106c0.42-0.113,0.715-0.4,0.797-0.777l0.051-0.014
			l-0.043-0.029c0.002-0.012-0.001-0.023,0-0.033c0.094,0.021,0.188,0.044,0.285,0.044c0.423,0,0.82-0.203,1.066-0.544L37.18,24.565
			c0.207-0.283,0.289-0.632,0.232-0.979c-0.012-0.073-0.052-0.135-0.074-0.203c0.006,0,0.014,0.003,0.021,0.003
			c0.423,0,0.821-0.203,1.067-0.545l1.093-1.509C40.024,20.633,40.196,19.764,40.004,18.88z M30.984,20.362l1.755,1.271
			L22.573,36.034l-1.917-1.387L30.984,20.362z M20.283,40.095l-0.223-2.853l2.931,2.119L20.283,40.095z M25.468,38.125L23.79,36.91
			l10.166-14.4l1.842,1.333L25.468,38.125z M38.27,20.424l-0.96,1.326l-4.812-3.48l0.959-1.326c0.506-0.698,1.701-0.787,2.537-0.185
			l1.657,1.197C38.521,18.586,38.798,19.692,38.27,20.424z"/>
		<path style="fill:#030104;" d="M3.436,14.464h7.869c0.934,0,1.693-0.759,1.693-1.692V1.794h17.329v13.45h1.796V1.692
			C32.123,0.758,31.363,0,30.43,0H12.896c-0.567,0-1.216,0.263-1.661,0.661c-0.125,0.095-0.233,0.203-0.33,0.331l-8.602,11.4
			c-0.383,0.506-0.661,1.335-0.661,1.971v23.51c0,0.935,0.759,1.692,1.692,1.692h13.771V37.77H3.436V14.464z M11.203,3.575v9.094
			H4.34L11.203,3.575z"/>
	</g>
</g>
<g>
</g>
<g>
</g>
<g>
</g>
<g>
</g>
<g>
</g>
<g>
</g>
<g>
</g>
<g>
</g>
<g>
</g>
<g>
</g>
<g>
</g>
<g>
</g>
<g>
</g>
<g>
</g>
<g>
</g>
</svg>
