<?xml version="1.0" encoding="iso-8859-1"?>
<!-- Generator: Adobe Illustrator 18.1.1, SVG Export Plug-In . SVG Version: 6.00 Build 0)  -->
<svg version="1.1" id="Capa_1" xmlns="http://www.w3.org/2000/svg" xmlns:xlink="http://www.w3.org/1999/xlink" x="0px" y="0px"
	 viewBox="0 0 25.625 25.625" style="enable-background:new 0 0 25.625 25.625;" xml:space="preserve">
<g>
	<path style="fill:#030104;" d="M25.333,12.065c-2.818-4.164-7.498-6.648-12.519-6.648c-5.02,0-9.701,2.484-12.52,6.646
		c-0.528,0.78-0.324,1.839,0.454,2.365c0.293,0.199,0.625,0.295,0.954,0.295c0.546,0,1.083-0.264,1.412-0.749
		c0.107-0.158,0.233-0.298,0.347-0.45c1.335,3.887,5.014,6.685,9.353,6.685c4.34,0,8.018-2.799,9.352-6.685
		c0.114,0.152,0.24,0.292,0.347,0.45c0.525,0.778,1.584,0.981,2.364,0.455C25.656,13.902,25.86,12.843,25.333,12.065z
		 M12.813,18.942c-4.046,0-7.441-2.802-8.37-6.565c1.248-1.281,2.754-2.256,4.419-2.854C8.321,10.301,8,11.243,8,12.262
		c0,2.658,2.155,4.813,4.813,4.813s4.813-2.155,4.813-4.813c0-1.02-0.322-1.963-0.864-2.741c1.666,0.597,3.173,1.573,4.421,2.854
		C20.255,16.138,16.86,18.942,12.813,18.942z"/>
</g>
<g>
</g>
<g>
</g>
<g>
</g>
<g>
</g>
<g>
</g>
<g>
</g>
<g>
</g>
<g>
</g>
<g>
</g>
<g>
</g>
<g>
</g>
<g>
</g>
<g>
</g>
<g>
</g>
<g>
</g>
</svg>
