<svg width="65" height="65" viewBox="0 0 65 65" fill="none" xmlns="http://www.w3.org/2000/svg">
<circle cx="32.5" cy="32.5" r="32.5" fill="url(#paint0_linear_115_317)"/>
<path fill-rule="evenodd" clip-rule="evenodd" d="M38.9132 50.2237H25.9458C25.8268 50.2237 25.7078 50.1761 25.6127 50.1047L16.4522 42.2767C16.3094 42.1577 16.2618 41.9674 16.2856 41.8008L18.7363 28.8572L19.8546 15.0332C19.8784 14.819 20.0212 14.6287 20.2353 14.5811C20.4495 14.5335 20.6874 14.6287 20.8064 14.819L24.8275 21.6002C26.3027 21.0291 31.561 19.4825 40.0077 21.6478L44.0526 14.819C44.1716 14.6287 44.3857 14.5335 44.5998 14.5811C44.814 14.6287 44.9805 14.819 45.0043 15.0332L46.0988 28.8572L48.5495 41.8008C48.5971 41.9674 48.5258 42.1577 48.383 42.2767L39.2225 50.1047C39.1511 50.1761 39.0322 50.2237 38.9132 50.2237ZM26.1361 49.2006H38.7228L47.5026 41.6819L45.0995 29.0237C45.0995 29.0079 45.0995 28.992 45.0995 28.9761L44.1002 16.7225L40.6739 22.4805C40.5549 22.6947 40.3408 22.7898 40.1029 22.7185C35.0349 21.3622 31.1327 21.4336 28.7772 21.7191C26.2075 22.0285 24.8275 22.6709 24.8275 22.6947C24.5895 22.7898 24.304 22.7185 24.1612 22.4805L20.735 16.7225L19.7595 28.9761C19.7436 28.992 19.7357 29.0079 19.7357 29.0237L17.3325 41.6819L26.1361 49.2006Z" fill="white"/>
<path fill-rule="evenodd" clip-rule="evenodd" d="M32.4176 39.9925C32.2986 39.9925 32.1558 39.9449 32.0607 39.8498L29.0865 36.8756C28.9437 36.7328 28.8961 36.5187 28.9913 36.3283C29.0627 36.138 29.253 36.019 29.4672 36.019H35.3917C35.6059 36.019 35.7724 36.138 35.8676 36.3283C35.939 36.5187 35.8914 36.7328 35.7486 36.8756L32.7745 39.8498C32.6793 39.9449 32.5603 39.9925 32.4176 39.9925ZM30.6806 37.0421L32.4176 38.779L34.1545 37.0421H30.6806Z" fill="white"/>
<path d="M30.6331 43.395C30.4189 43.395 30.181 43.3474 29.9193 43.2522C29.6576 43.1809 29.5148 42.8954 29.5862 42.6098C29.6814 42.3481 29.9669 42.2053 30.2286 42.3005C30.7045 42.4433 30.9424 42.3481 31.0614 42.2291C31.7514 41.7295 31.9179 40.0401 31.9179 39.4929C31.9179 39.2074 32.1321 38.9932 32.4176 38.9932C32.7031 38.9932 32.9411 39.2074 32.9411 39.4929C32.9411 39.7546 32.8935 42.1815 31.6562 43.0619C31.4421 43.2285 31.0852 43.395 30.6331 43.395Z" fill="white"/>
<path fill-rule="evenodd" clip-rule="evenodd" d="M34.2021 43.395C33.75 43.395 33.4169 43.2285 33.179 43.0619C31.9417 42.1815 31.9179 39.7546 31.9179 39.4929C31.9179 39.2074 32.1321 38.9932 32.4176 38.9932C32.7031 38.9932 32.941 39.2074 32.941 39.4929C32.941 40.0401 33.0838 41.7533 33.7738 42.2291C33.9166 42.3481 34.1545 42.4433 34.6066 42.3005C34.8683 42.2053 35.1538 42.3481 35.249 42.6098C35.3442 42.8954 35.2014 43.1809 34.9397 43.2522C34.6542 43.3474 34.4162 43.395 34.2021 43.395Z" fill="white"/>
<path d="M38.6991 36.709C38.5087 36.709 38.3184 36.5901 38.247 36.3997C38.128 36.1618 38.2232 35.8525 38.4849 35.7335L50.2151 30.261C50.4768 30.142 50.7623 30.2372 50.8813 30.4989C51.0003 30.7607 50.9051 31.07 50.6434 31.1889L38.9132 36.6614C38.8497 36.6932 38.7784 36.709 38.6991 36.709Z" fill="white"/>
<path d="M50.4292 47.3923C50.3499 47.3923 50.2785 47.3764 50.2151 47.3447L38.4849 41.8722C38.2232 41.7532 38.128 41.4439 38.247 41.206C38.3659 40.9443 38.6515 40.8253 38.9132 40.9443L50.6434 46.4168C50.9051 46.5357 51.0003 46.845 50.8813 47.1068C50.8099 47.2733 50.6196 47.3923 50.4292 47.3923Z" fill="white"/>
<path d="M53.6414 39.2787H38.2232C37.9615 39.2787 37.7235 39.0408 37.7235 38.7553C37.7235 38.4697 37.9615 38.2556 38.2232 38.2556H53.6414C53.9269 38.2556 54.1648 38.4697 54.1648 38.7553C54.1648 39.0408 53.9269 39.2787 53.6414 39.2787Z" fill="white"/>
<path d="M26.0885 36.3521C26.0251 36.3521 25.9537 36.3362 25.8744 36.3045L14.1442 30.832C13.9063 30.7131 13.7873 30.4037 13.9063 30.1658C14.0252 29.9041 14.3345 29.7851 14.5725 29.9041L26.3026 35.3766C26.5644 35.4955 26.6834 35.8049 26.5644 36.0666C26.4692 36.2569 26.2789 36.3521 26.0885 36.3521Z" fill="white"/>
<path d="M14.3583 47.0592C14.168 47.0592 14.0014 46.9402 13.9063 46.7499C13.7873 46.5119 13.9063 46.2026 14.1442 46.0837L25.8744 40.6112C26.1361 40.4922 26.4454 40.5874 26.5644 40.8491C26.6834 41.1108 26.5644 41.4201 26.3026 41.5391L14.5725 47.0116C14.509 47.0433 14.4377 47.0592 14.3583 47.0592Z" fill="white"/>
<path d="M26.5644 38.9218H11.1462C10.8607 38.9218 10.6466 38.7077 10.6466 38.4221C10.6466 38.1366 10.8607 37.8987 11.1462 37.8987H26.5644C26.8499 37.8987 27.0641 38.1366 27.0641 38.4221C27.0641 38.7077 26.8499 38.9218 26.5644 38.9218Z" fill="white"/>
<defs>
<linearGradient id="paint0_linear_115_317" x1="-1.69976e-07" y1="33.0328" x2="65" y2="33.0328" gradientUnits="userSpaceOnUse">
<stop stop-color="#00CAFC"/>
<stop offset="1" stop-color="#0056E2"/>
</linearGradient>
</defs>
</svg>
