<svg width="65" height="65" viewBox="0 0 65 65" fill="none" xmlns="http://www.w3.org/2000/svg">
<circle cx="32.5" cy="32.5" r="32.5" fill="url(#paint0_linear_43_79)"/>
<path fill-rule="evenodd" clip-rule="evenodd" d="M32.1527 36.6246C32.0234 36.6246 31.8683 36.547 31.7649 36.4436L26.3875 31.0921C26.2324 30.937 26.1807 30.6785 26.2841 30.4716C26.3617 30.2648 26.5685 30.1356 26.7753 30.1356H37.53C37.7627 30.1356 37.9437 30.2648 38.0471 30.4716C38.1246 30.6785 38.0729 30.937 37.9178 31.0921L32.5405 36.4436C32.437 36.547 32.3078 36.6246 32.1527 36.6246ZM28.1197 31.2472L32.1527 35.2802L36.1857 31.2472H28.1197Z" fill="white"/>
<path d="M32.1526 38.2274C31.8424 38.2274 31.6097 37.9948 31.6097 37.6845V36.0558C31.6097 35.7714 31.8424 35.5129 32.1526 35.5129C32.4629 35.5129 32.7214 35.7714 32.7214 36.0558V37.6845C32.7214 37.9948 32.4629 38.2274 32.1526 38.2274Z" fill="white"/>
<path d="M34.7121 40.9161C34.5828 40.9161 34.4277 40.8644 34.3243 40.761L32.1527 38.5894L29.981 40.761C29.7742 40.9937 29.4123 40.9937 29.2055 40.761C28.9728 40.5542 28.9728 40.1922 29.2055 39.9854L31.7649 37.426C31.9717 37.1933 32.3336 37.1933 32.5404 37.426L35.1257 39.9854C35.3325 40.1922 35.3325 40.5542 35.1257 40.761C34.9964 40.8644 34.8672 40.9161 34.7121 40.9161Z" fill="white"/>
<path d="M30.0844 50.2231C29.8518 50.2231 29.6449 50.0939 29.5674 49.887L27.9128 45.9057L25.9221 49.6543C25.8187 49.8612 25.6119 49.9904 25.3792 49.9646C25.1724 49.9387 24.9656 49.7836 24.9139 49.5768L19.8468 34.6598C19.7692 34.4271 19.8468 34.1427 20.0795 34.0135L26.5168 30.2131C26.7753 30.058 27.1114 30.1614 27.2665 30.42C27.4216 30.6785 27.3182 31.0146 27.0597 31.1697L21.036 34.7374L25.5344 48.0256L27.4733 44.3546C27.5767 44.1736 27.7835 44.0443 27.9904 44.0702C28.1972 44.0702 28.3782 44.1994 28.4816 44.4063L30.0586 48.2325L31.6356 44.4063C31.7649 44.1219 32.0751 43.9926 32.3595 44.096C32.6439 44.2253 32.7731 44.5355 32.6697 44.8199L30.5756 49.887C30.4981 50.0939 30.2913 50.2231 30.0844 50.2231Z" fill="white"/>
<path d="M34.6087 50.2231C34.376 50.2231 34.1692 50.0939 34.0916 49.887L32.0234 44.8199C31.8942 44.5355 32.0234 44.2253 32.3078 44.096C32.5922 43.9926 32.9283 44.1219 33.0317 44.4063L34.6087 48.2325L36.2116 44.4063C36.2891 44.1994 36.4701 44.0702 36.7028 44.0702C36.9096 44.0443 37.1164 44.1736 37.2198 44.3546L39.1329 48.0256L43.6571 34.7374L37.6076 31.1697C37.3491 31.0146 37.2715 30.6785 37.4266 30.42C37.5818 30.1614 37.9178 30.058 38.1764 30.2131L44.5878 34.0135C44.8205 34.1427 44.9239 34.4271 44.8464 34.6598L39.7792 49.5768C39.7017 49.7836 39.5207 49.9387 39.288 49.9646C39.0812 49.9904 38.8744 49.8612 38.771 49.6543L36.7803 45.9057L35.1258 49.887C35.0223 50.0939 34.8414 50.2231 34.6087 50.2231Z" fill="white"/>
<path d="M22.5096 33.7808C22.277 33.7808 22.0443 33.5998 21.9926 33.3672L18.9937 22.7934C18.9161 22.509 19.0971 22.1988 19.3814 22.1213C19.6917 22.0437 19.9761 22.2247 20.0795 22.509L23.0525 33.0569C23.1301 33.3672 22.975 33.6774 22.6647 33.755C22.613 33.7722 22.5613 33.7808 22.5096 33.7808Z" fill="white"/>
<path fill-rule="evenodd" clip-rule="evenodd" d="M15.1158 27.6278C15.0296 27.6278 14.952 27.6106 14.8831 27.5761C14.6504 27.4727 14.547 27.24 14.5728 27.0073L15.9689 16.3819C15.9947 16.1233 16.2016 15.9165 16.4601 15.8907L26.2066 14.9083C26.4392 14.9083 26.646 15.0117 26.7495 15.2185C26.8529 15.4253 26.827 15.6838 26.646 15.8648L15.5035 27.4468C15.4001 27.5761 15.2709 27.6278 15.1158 27.6278ZM17.003 16.9506L15.8913 25.482L24.8364 16.175L17.003 16.9506Z" fill="white"/>
<path d="M42.1577 33.4189C42.106 33.4189 42.0542 33.4103 42.0025 33.393C41.7182 33.3155 41.5372 33.0052 41.6406 32.7209L44.6137 22.173C44.6912 21.8627 45.0015 21.7076 45.2858 21.7852C45.5961 21.8627 45.7512 22.173 45.6736 22.4573L42.7006 33.0311C42.623 33.2638 42.3903 33.4189 42.1577 33.4189Z" fill="white"/>
<path fill-rule="evenodd" clip-rule="evenodd" d="M49.5774 27.2918C49.4222 27.2918 49.2671 27.2142 49.1637 27.1108L38.0212 15.5029C37.8661 15.3478 37.8144 15.0893 37.9178 14.8825C38.0212 14.6757 38.2539 14.5464 38.4866 14.5722L48.233 15.5546C48.4915 15.5805 48.6725 15.7873 48.7242 16.02L50.1203 26.6713C50.1461 26.904 50.0169 27.1366 49.81 27.2401C49.7239 27.2745 49.6463 27.2918 49.5774 27.2918ZM39.8568 15.8132L48.8018 25.146L47.6901 16.6146L39.8568 15.8132Z" fill="white"/>
<path d="M39.7016 17.2609C39.6499 17.2609 39.6068 17.2609 39.5724 17.2609C36.5993 16.4854 25.7153 17.2609 25.6119 17.2609C25.3017 17.2868 25.0432 17.0541 25.0173 16.7439C24.9915 16.4595 25.2241 16.1751 25.5344 16.1751C25.9739 16.1234 36.7027 15.3737 39.8309 16.1751C40.1411 16.2527 40.2962 16.5629 40.2445 16.8473C40.167 17.1058 39.9343 17.2609 39.7016 17.2609Z" fill="white"/>
<defs>
<linearGradient id="paint0_linear_43_79" x1="-1.69976e-07" y1="33.0328" x2="65" y2="33.0328" gradientUnits="userSpaceOnUse">
<stop stop-color="#00CAFC"/>
<stop offset="1" stop-color="#0056E2"/>
</linearGradient>
</defs>
</svg>
