<svg width="16" height="16" viewBox="0 0 16 16" fill="none" xmlns="http://www.w3.org/2000/svg">
<path fill-rule="evenodd" clip-rule="evenodd" d="M8.00031 0C3.58328 0 0 3.58328 0 8.00031C0 12.4173 3.58328 16.0006 8.00031 16.0006C12.4173 16.0006 16.0006 12.4173 16.0006 8.00031C16.0006 3.58328 12.4173 0 8.00031 0ZM1.88633 8.00031C1.88633 4.62507 4.62507 1.88633 8.00031 1.88633C11.3755 1.88633 14.1143 4.62507 14.1143 8.00031C14.1143 11.3755 11.3755 14.1143 8.00031 14.1143C4.62507 14.1143 1.88633 11.3755 1.88633 8.00031ZM8.42656 5.72431C8.79345 5.35455 8.79112 4.75738 8.42137 4.39049C8.05161 4.02359 7.45444 4.02592 7.08754 4.39568L4.16986 7.33615C3.80498 7.70388 3.80498 8.29706 4.16986 8.66479L7.08754 11.6053C7.45444 11.975 8.05161 11.9773 8.42137 11.6105C8.79112 11.2436 8.79345 10.6464 8.42656 10.2766L7.10389 8.94363H11.1614C11.6823 8.94363 12.1045 8.52136 12.1045 8.00047C12.1045 7.47957 11.6823 7.05731 11.1614 7.05731H7.10389L8.42656 5.72431Z" fill="url(#paint0_linear_126_5835)"/>
<defs>
<linearGradient id="paint0_linear_126_5835" x1="-4.18418e-08" y1="8.13146" x2="16.0006" y2="8.13146" gradientUnits="userSpaceOnUse">
<stop stop-color="#00CAFC"/>
<stop offset="1" stop-color="#0056E2"/>
</linearGradient>
</defs>
</svg>
