<svg width="16" height="16" viewBox="0 0 16 16" fill="none" xmlns="http://www.w3.org/2000/svg">
<path d="M6.80169 0.0169153C6.27511 0.0472956 5.84641 0.104679 5.74852 0.148561C5.573 0.236325 5.49198 0.398351 5.50886 0.638013C5.52236 0.816916 5.53924 0.854047 5.64726 0.965439C5.77215 1.09033 5.77553 1.09033 6.05232 1.09033C6.20422 1.09033 6.70042 1.07008 7.15612 1.04308C9.31646 0.921557 11.6996 1.23548 13.2624 1.84983C14.4135 2.29877 15.0819 2.89962 14.9536 3.36544C14.9333 3.44308 14.9097 3.50384 14.8996 3.50384C14.8928 3.50384 14.8253 3.4667 14.7578 3.42282C14.5249 3.27768 13.9983 3.02451 13.6203 2.87936C11.5173 2.06924 8.35781 1.77894 5.50211 2.14012C3.82447 2.34941 2.26498 2.81523 1.31308 3.38907C1.20844 3.4532 1.11392 3.50384 1.1038 3.50384C1.0903 3.50384 1.06667 3.44308 1.04641 3.36544C0.941772 2.984 1.40084 2.47768 2.21435 2.08274C2.41013 1.98485 2.60253 1.8667 2.64979 1.8127C2.86245 1.55953 2.77131 1.14097 2.47764 1.01945C2.26835 0.931684 2.12658 0.958688 1.71814 1.16797C0.924895 1.56966 0.408439 2.02873 0.145148 2.56881L0 2.86249V4.24983V5.63717L0.15865 5.94434C0.567089 6.73422 1.4211 7.31481 2.87257 7.784C4.01688 8.15531 5.29283 8.3781 6.81519 8.46924L7.49367 8.51312V9.50215V10.4912H6.72405H5.95106L5.91055 10.346C5.79578 9.96122 5.50886 9.58316 5.14093 9.33C4.04051 8.58063 2.50464 9.10046 2.08945 10.3629C1.97468 10.7106 1.97468 11.2844 2.08608 11.6085C2.18059 11.8785 2.35612 12.1857 2.52152 12.3545L2.64304 12.4794L2.48776 12.6549C1.94093 13.2794 1.83966 14.211 2.2346 14.957C2.40675 15.2811 2.76456 15.6186 3.10886 15.784C3.44304 15.9427 3.6557 15.9933 4.01013 15.9933C4.77975 15.9899 5.47511 15.5612 5.80591 14.8794C5.88017 14.7241 5.94093 14.5756 5.94093 14.5519C5.94093 14.5148 6.32911 14.5081 8 14.5081C9.67089 14.5081 10.0591 14.5148 10.0591 14.5519C10.0591 14.5756 10.1198 14.7241 10.1941 14.8794C10.4473 15.3992 10.9603 15.811 11.5173 15.9427C12.2059 16.1047 12.9215 15.9021 13.4143 15.4059C13.6911 15.1292 13.8464 14.8591 13.9409 14.4878C14.1063 13.8431 13.9443 13.1477 13.5122 12.6549L13.357 12.4794L13.4785 12.3545C13.6439 12.1857 13.8194 11.8785 13.9139 11.6085C14.0253 11.2844 14.0253 10.7106 13.9105 10.3629C13.627 9.4954 12.7662 8.91818 11.8515 8.98569C11.038 9.04645 10.3089 9.61016 10.0895 10.346L10.0489 10.4912H9.27595H8.50633V9.50215V8.51312L9.17468 8.47261C11.0515 8.35784 12.6278 8.03379 13.9004 7.50046C14.8793 7.08865 15.5105 6.58569 15.8414 5.94434L16 5.63717V4.24645V2.85573L15.8414 2.54856C15.5105 1.90721 14.8793 1.40426 13.9004 0.992443C12.6785 0.479363 11.1089 0.148561 9.31646 0.0270424C8.87426 -0.00333786 7.22363 -0.010088 6.80169 0.0169153ZM9.38397 3.06839C10.6937 3.14941 11.9122 3.37557 12.9316 3.72662C13.384 3.87852 14.0759 4.19244 14.0759 4.24645C14.0759 4.27683 13.5966 4.51312 13.2557 4.64814C12.2734 5.03633 10.9333 5.30974 9.38397 5.42789C8.79325 5.47514 7.20338 5.47514 6.59916 5.42789C5.20169 5.31987 3.92911 5.07683 2.97046 4.72915C2.54852 4.57725 1.92405 4.28696 1.92405 4.24645C1.92405 4.17557 2.81181 3.79076 3.34852 3.62535C5.00253 3.1224 7.13249 2.92324 9.38397 3.06839ZM1.69789 5.31312C4.80675 6.87599 10.9873 6.90637 14.1772 5.37388C14.3899 5.27261 14.6565 5.12746 14.7747 5.0532L14.9873 4.92156V5.10046C14.9873 5.45827 14.8253 5.72156 14.4203 6.02535C12.7426 7.29118 8.55696 7.82451 4.97215 7.23042C2.8962 6.88949 1.30295 6.1435 1.04979 5.39751C1.02954 5.33337 1.01266 5.20173 1.01266 5.10046V4.91818L1.19831 5.0397C1.30295 5.10384 1.52574 5.22873 1.69789 5.31312ZM4.3308 10.0726C4.54684 10.1469 4.8 10.3798 4.89114 10.5891C4.93165 10.6836 4.97215 10.8524 4.98565 10.9638C5.00928 11.2068 5.10042 11.3621 5.26582 11.4431C5.37384 11.5005 5.57637 11.5038 8 11.5038C10.4236 11.5038 10.6262 11.5005 10.7342 11.4431C10.8996 11.3621 10.9907 11.2068 11.0143 10.9638C11.0481 10.6701 11.1527 10.4473 11.3485 10.2718C11.7536 9.90721 12.3679 9.94097 12.7291 10.3494C13.2557 10.9502 12.8608 11.8954 12.0473 11.9663C11.7063 12 11.497 12.1924 11.497 12.4726C11.5004 12.7933 11.6726 12.9654 12.0304 13.0059C12.2903 13.0363 12.4759 13.1173 12.6515 13.276C13.0633 13.6473 13.0734 14.2988 12.6717 14.6836C12.3241 15.0144 11.8076 15.0549 11.4329 14.7781C11.1797 14.5924 11.0616 14.373 11.0076 14.0017C10.9705 13.7216 10.8861 13.5899 10.7004 13.5157C10.5789 13.4684 10.2819 13.4616 8 13.4616C5.71814 13.4616 5.4211 13.4684 5.29958 13.5157C5.12068 13.5865 5.02954 13.7216 4.99578 13.968C4.95527 14.2481 4.90127 14.4 4.7865 14.5587C4.59409 14.822 4.18903 15.0076 3.90549 14.9638C3.55781 14.9064 3.26076 14.6903 3.11899 14.3899C3.01435 14.1739 3.0076 13.8161 3.10211 13.6102C3.24051 13.3064 3.61181 13.0228 3.87173 13.0228C4.02025 13.0228 4.04388 12.9654 4.07089 12.5232C4.10127 12.0237 4.09114 11.9899 3.89198 11.9629C3.12911 11.8583 2.76793 10.9401 3.26414 10.3595C3.52405 10.0557 3.94599 9.94097 4.3308 10.0726Z" fill="white"/>
<path d="M3.76033 0.496233C3.50042 0.654883 3.42278 0.908048 3.55105 1.16796C3.64557 1.36037 3.79071 1.45151 4 1.45151C4.40168 1.45151 4.63459 1.05995 4.44894 0.705516C4.3173 0.452351 3.99324 0.354461 3.76033 0.496233Z" fill="white"/>
</svg>
