<svg width="37" height="37" viewBox="0 0 37 37" fill="none" xmlns="http://www.w3.org/2000/svg">
<path fill-rule="evenodd" clip-rule="evenodd" d="M18.1527 22.6246C18.0234 22.6246 17.8683 22.547 17.7649 22.4436L12.3876 17.0921C12.2324 16.937 12.1807 16.6785 12.2841 16.4716C12.3617 16.2648 12.5685 16.1356 12.7753 16.1356H23.5301C23.7627 16.1356 23.9437 16.2648 24.0471 16.4716C24.1247 16.6785 24.073 16.937 23.9178 17.0921L18.5405 22.4436C18.4371 22.547 18.3078 22.6246 18.1527 22.6246ZM14.1197 17.2472L18.1527 21.2802L22.1857 17.2472H14.1197Z" fill="white"/>
<path d="M18.1526 24.2274C17.8424 24.2274 17.6097 23.9948 17.6097 23.6845V22.0558C17.6097 21.7714 17.8424 21.5129 18.1526 21.5129C18.4629 21.5129 18.7214 21.7714 18.7214 22.0558V23.6845C18.7214 23.9948 18.4629 24.2274 18.1526 24.2274Z" fill="white"/>
<path d="M20.7121 26.9161C20.5829 26.9161 20.4277 26.8644 20.3243 26.761L18.1527 24.5894L15.9811 26.761C15.7743 26.9937 15.4123 26.9937 15.2055 26.761C14.9728 26.5542 14.9728 26.1922 15.2055 25.9854L17.7649 23.426C17.9717 23.1933 18.3337 23.1933 18.5405 23.426L21.1258 25.9854C21.3326 26.1922 21.3326 26.5542 21.1258 26.761C20.9965 26.8644 20.8672 26.9161 20.7121 26.9161Z" fill="white"/>
<path d="M16.0845 36.2231C15.8518 36.2231 15.645 36.0939 15.5674 35.887L13.9129 31.9057L11.9222 35.6543C11.8188 35.8612 11.612 35.9904 11.3793 35.9646C11.1725 35.9387 10.9657 35.7836 10.914 35.5768L5.84683 20.6598C5.76927 20.4271 5.84684 20.1427 6.07951 20.0135L12.5168 16.2131C12.7754 16.058 13.1114 16.1614 13.2666 16.42C13.4217 16.6785 13.3183 17.0146 13.0597 17.1697L7.03606 20.7374L11.5344 34.0256L13.4734 30.3546C13.5768 30.1736 13.7836 30.0443 13.9904 30.0702C14.1972 30.0702 14.3782 30.1994 14.4816 30.4063L16.0586 34.2325L17.6357 30.4063C17.7649 30.1219 18.0752 29.9926 18.3595 30.096C18.6439 30.2253 18.7732 30.5355 18.6698 30.8199L16.5757 35.887C16.4981 36.0939 16.2913 36.2231 16.0845 36.2231Z" fill="white"/>
<path d="M20.6088 36.2231C20.3761 36.2231 20.1693 36.0939 20.0917 35.887L18.0235 30.8199C17.8942 30.5355 18.0235 30.2253 18.3079 30.096C18.5923 29.9926 18.9283 30.1219 19.0317 30.4063L20.6088 34.2325L22.2116 30.4063C22.2892 30.1994 22.4702 30.0702 22.7028 30.0702C22.9096 30.0443 23.1165 30.1736 23.2199 30.3546L25.133 34.0256L29.6572 20.7374L23.6077 17.1697C23.3491 17.0146 23.2716 16.6785 23.4267 16.42C23.5818 16.1614 23.9179 16.058 24.1764 16.2131L30.5879 20.0135C30.8206 20.1427 30.924 20.4271 30.8464 20.6598L25.7793 35.5768C25.7017 35.7836 25.5208 35.9387 25.2881 35.9646C25.0813 35.9904 24.8745 35.8612 24.771 35.6543L22.7804 31.9057L21.1258 35.887C21.0224 36.0939 20.8414 36.2231 20.6088 36.2231Z" fill="white"/>
<path d="M8.50956 19.7808C8.27689 19.7808 8.04422 19.5998 7.99251 19.3672L4.9936 8.79343C4.91604 8.50905 5.09701 8.19881 5.38139 8.12125C5.69162 8.0437 5.976 8.22466 6.07941 8.50904L9.05247 19.0569C9.13003 19.3672 8.97491 19.6774 8.66468 19.755C8.61298 19.7722 8.56127 19.7808 8.50956 19.7808Z" fill="white"/>
<path fill-rule="evenodd" clip-rule="evenodd" d="M1.11576 13.6278C1.02958 13.6278 0.952023 13.6106 0.883083 13.5761C0.650409 13.4727 0.546995 13.24 0.572848 13.0073L1.96889 2.38187C1.99474 2.12334 2.20157 1.91652 2.4601 1.89067L12.2066 0.908264C12.4392 0.908264 12.646 1.01168 12.7495 1.2185C12.8529 1.42532 12.827 1.68385 12.646 1.86482L1.50355 13.4468C1.40013 13.5761 1.27087 13.6278 1.11576 13.6278ZM3.003 2.95062L1.89134 11.482L10.8364 2.17504L3.003 2.95062Z" fill="white"/>
<path d="M28.1577 19.4189C28.106 19.4189 28.0542 19.4103 28.0025 19.393C27.7182 19.3155 27.5372 19.0052 27.6406 18.7209L30.6137 8.17297C30.6912 7.86273 31.0015 7.70762 31.2858 7.78518C31.5961 7.86273 31.7512 8.17297 31.6736 8.45735L28.7006 19.0311C28.623 19.2638 28.3903 19.4189 28.1577 19.4189Z" fill="white"/>
<path fill-rule="evenodd" clip-rule="evenodd" d="M35.5774 13.2918C35.4222 13.2918 35.2671 13.2142 35.1637 13.1108L24.0212 1.50295C23.8661 1.34783 23.8144 1.0893 23.9178 0.882475C24.0212 0.675654 24.2539 0.546395 24.4866 0.572248L34.233 1.55465C34.4915 1.5805 34.6725 1.78733 34.7242 2.02L36.1203 12.6713C36.1461 12.904 36.0169 13.1366 35.81 13.2401C35.7239 13.2745 35.6463 13.2918 35.5774 13.2918ZM25.8568 1.81317L34.8018 11.146L33.6901 2.61461L25.8568 1.81317Z" fill="white"/>
<path d="M25.7017 3.26094C25.65 3.26094 25.6069 3.26094 25.5724 3.26094C22.5993 2.48536 11.7154 3.26094 11.612 3.26094C11.3017 3.28679 11.0432 3.05412 11.0173 2.74388C10.9915 2.45951 11.2242 2.17512 11.5344 2.17512C11.9739 2.12342 22.7028 1.37369 25.8309 2.17512C26.1412 2.25268 26.2963 2.56291 26.2446 2.84729C26.167 3.10582 25.9343 3.26094 25.7017 3.26094Z" fill="white"/>
</svg>
