<svg width="10" height="16" viewBox="0 0 10 16" fill="none" xmlns="http://www.w3.org/2000/svg">
<path d="M2.46059e-06 15.1111C2.46059e-06 13.4637 0.343706 12.1273 1.03111 11.1019C1.71852 10.0764 2.66667 9.04249 3.87556 8C2.66667 6.95704 1.71852 5.92308 1.03111 4.89813C0.343706 3.87319 2.46059e-06 2.53677 2.46059e-06 0.888891V0.711113C2.46059e-06 0.509632 0.0682692 0.340625 0.204802 0.204091C0.341336 0.067558 0.510106 -0.000471613 0.711113 2.46059e-06C0.912595 2.46059e-06 1.0816 0.0682691 1.21814 0.204802C1.35467 0.341336 1.4227 0.510106 1.42222 0.711113V0.888891C1.42222 1.01926 1.42531 1.14086 1.43147 1.25369C1.43763 1.36652 1.4464 1.48196 1.45778 1.6H8.49778C8.50963 1.48148 8.51864 1.36581 8.5248 1.25298C8.53096 1.14015 8.53381 1.01879 8.53333 0.888891V0.711113C8.53333 0.509632 8.6016 0.340625 8.73813 0.204091C8.87467 0.067558 9.04344 -0.000471613 9.24444 2.46059e-06C9.44593 2.46059e-06 9.61493 0.0682691 9.75147 0.204802C9.888 0.341336 9.95603 0.510106 9.95555 0.711113V0.888891C9.95555 2.5363 9.61185 3.87271 8.92444 4.89813C8.23704 5.92356 7.28889 6.95751 6.08 8C7.28889 9.04296 8.23704 10.0769 8.92444 11.1019C9.61185 12.1268 9.95555 13.4632 9.95555 15.1111V15.2889C9.95555 15.4904 9.88729 15.6594 9.75076 15.7959C9.61422 15.9324 9.44545 16.0005 9.24444 16C9.04296 16 8.87396 15.9317 8.73742 15.7952C8.60089 15.6587 8.53286 15.4899 8.53333 15.2889V15.1111C8.53333 14.9807 8.53025 14.8591 8.52409 14.7463C8.51793 14.6335 8.50916 14.518 8.49778 14.4H1.45778C1.44593 14.5185 1.43716 14.6342 1.43147 14.747C1.42578 14.8599 1.4227 14.9812 1.42222 15.1111V15.2889C1.42222 15.4904 1.35396 15.6594 1.21742 15.7959C1.08089 15.9324 0.912121 16.0005 0.711113 16C0.509632 16 0.340625 15.9317 0.204091 15.7952C0.0675581 15.6587 -0.000471613 15.4899 2.46059e-06 15.2889V15.1111ZM2.45334 4.44445H7.50222C7.6563 4.21926 7.78975 3.99408 7.90258 3.76889C8.01541 3.54371 8.11899 3.29482 8.21333 3.02222H1.74222C1.83704 3.28296 1.94062 3.52901 2.05298 3.76036C2.16534 3.9917 2.29879 4.21973 2.45334 4.44445ZM4.97778 7.07556C5.21482 6.87407 5.44593 6.67259 5.67111 6.47111C5.8963 6.26963 6.10963 6.06815 6.31111 5.86667H3.64445C3.84593 6.06815 4.05926 6.26963 4.28445 6.47111C4.50963 6.67259 4.74074 6.87407 4.97778 7.07556ZM3.64445 10.1333H6.31111C6.10963 9.93185 5.8963 9.73037 5.67111 9.52889C5.44593 9.32741 5.21482 9.12593 4.97778 8.92444C4.74074 9.12593 4.50963 9.32741 4.28445 9.52889C4.05926 9.73037 3.84593 9.93185 3.64445 10.1333ZM1.74222 12.9778H8.21333C8.11852 12.717 8.0147 12.471 7.90187 12.2396C7.78904 12.0083 7.65582 11.7803 7.50222 11.5556H2.45334C2.29926 11.7807 2.16605 12.0059 2.05369 12.2311C1.94134 12.4563 1.83751 12.7052 1.74222 12.9778Z" fill="white"/>
</svg>
