<svg width="61" height="48" viewBox="0 0 61 48" fill="none" xmlns="http://www.w3.org/2000/svg">
<path d="M56.2137 45.9334C58.3269 45.9334 60.04 44.2181 60.04 42.1022C60.04 39.9863 58.3269 38.271 56.2137 38.271C54.1005 38.271 52.3875 39.9863 52.3875 42.1022C52.3875 44.2181 54.1005 45.9334 56.2137 45.9334Z" fill="white"/>
<path d="M19.5018 14.469C19.1502 14.0277 18.7046 13.6706 18.1976 13.4238C17.6905 13.177 17.1348 13.0467 16.571 13.0425C15.6191 13.1407 14.7373 13.5888 14.0962 14.3002C13.4551 15.0117 13.1003 15.9359 13.1003 16.8941C13.1003 17.8523 13.4551 18.7765 14.0962 19.4879C14.7373 20.1993 15.6191 20.6474 16.571 20.7456C17.4471 20.7135 18.2894 20.399 18.9726 19.849C21.2838 20.3603 23.3766 21.5844 24.9566 23.3489C26.5366 25.1135 27.5243 27.3296 27.7806 29.6856C28.0369 32.0416 27.549 34.4188 26.3855 36.4826C25.222 38.5464 23.4414 40.1929 21.2945 41.1905C19.1475 42.1881 16.7422 42.4865 14.417 42.0438C12.0918 41.601 9.96376 40.4393 8.3324 38.7222C6.70103 37.0051 5.64845 34.8192 5.32277 32.4718C4.9971 30.1244 5.41471 27.7339 6.51686 25.6366L1.95789 23.0688C0.679203 25.5081 0.00885652 28.2209 0.00405122 30.9758C-0.0398734 34.1808 0.833274 37.3315 2.52036 40.0556C4.20744 42.7798 6.63796 44.9635 9.52479 46.3489C12.4116 47.7342 15.6341 48.2633 18.8117 47.8737C21.9892 47.484 24.9889 46.1919 27.4565 44.1499C29.9242 42.1079 31.7565 39.4015 32.7372 36.3502C33.7179 33.2989 33.8058 30.0304 32.9907 26.9306C32.1756 23.8309 30.4915 21.0295 28.1373 18.8574C25.7832 16.6853 22.8573 15.2333 19.7053 14.6728L19.5018 14.469Z" fill="white"/>
<path d="M55.485 33.4619C55.5662 34.1235 55.8862 34.7325 56.3848 35.1742C56.8834 35.6158 57.5262 35.8596 58.1919 35.8596C58.8576 35.8596 59.5003 35.6158 59.9989 35.1742C60.4976 34.7325 60.8176 34.1235 60.8988 33.4619V17.1589C60.9203 14.9099 60.4958 12.6789 59.6499 10.5954C58.804 8.51182 57.5535 6.61709 55.9708 5.02103C54.3882 3.42497 52.5049 2.1593 50.4301 1.29741C48.3553 0.435529 46.1303 -0.0054464 43.8841 5.07687e-05C41.2144 0.0640521 38.5995 0.771736 36.2611 2.06305C33.9227 3.35436 31.9298 5.19124 30.4514 7.41793C29.1559 5.51609 27.4784 3.90581 25.5261 2.69005C25.406 2.58499 25.2681 2.50219 25.119 2.44552H24.9155L23.8979 1.91565C23.0688 1.53665 22.2114 1.22324 21.3334 0.978251H21.0078L20.0309 0.733717H16.8559C12.6553 0.702031 8.5965 2.25376 5.48599 5.08061C2.37548 7.90746 0.440886 11.8025 0.0665829 15.9919C-0.30772 20.1812 0.905661 24.3583 3.46566 27.6931C6.02565 31.0279 9.74488 33.2763 13.8844 33.9917C14.2904 34.4959 14.8174 34.8889 15.4163 35.1338C16.0151 35.3787 16.6661 35.4676 17.3086 35.3922C17.951 35.3168 18.5639 35.0795 19.0899 34.7026C19.6159 34.3257 20.0379 33.8214 20.3165 33.2368C20.595 32.6523 20.721 32.0066 20.6827 31.36C20.6443 30.7135 20.4429 30.0872 20.0973 29.5398C19.7516 28.9923 19.273 28.5416 18.7062 28.2296C18.1393 27.9176 17.5027 27.7546 16.8559 27.7558C15.98 27.7511 15.1302 28.054 14.4543 28.6118C11.7425 27.9926 9.35198 26.3985 7.73601 24.1318C6.12004 21.8651 5.39099 19.0835 5.68712 16.3144C5.98325 13.5453 7.28396 10.9812 9.3426 9.10853C11.4013 7.23583 14.0747 6.18467 16.8559 6.1544H19.7052C20.3117 6.30382 20.899 6.52265 21.4556 6.80653L22.3104 7.01033C23.6968 7.80885 24.8969 8.89461 25.8306 10.1949C26.7642 11.4953 27.4098 12.9802 27.7241 14.5505C27.7972 15.1018 28.047 15.6144 28.4361 16.0113C28.8251 16.4082 29.3324 16.6679 29.8815 16.7514H30.4514C31.0622 16.743 31.6513 16.5234 32.1187 16.1296C32.5861 15.7359 32.9031 15.1923 33.0158 14.5912C33.5182 12.0393 34.8792 9.73688 36.8718 8.06807C38.8644 6.39927 41.3681 5.46491 43.9655 5.42079C45.4886 5.42071 46.9966 5.72302 48.4022 6.31031C49.8078 6.8976 51.0832 7.75818 52.1545 8.84223C53.2258 9.92627 54.0718 11.2123 54.6434 12.6259C55.2151 14.0394 55.5012 15.5524 55.485 17.0774V33.4619Z" fill="white"/>
</svg>
